<svg width="60" height="60" viewBox="0 0 60 60" fill="none" xmlns="http://www.w3.org/2000/svg">
<path opacity="0.15" fill-rule="evenodd" clip-rule="evenodd" d="M30 60C46.5685 60 60 46.5685 60 30C60 13.4315 46.5685 0 30 0C13.4315 0 0 13.4315 0 30C0 46.5685 13.4315 60 30 60Z" fill="#FBFBFB"/>
<path d="M29.4717 41.3687H31.4981L32.1484 44.4279H29.1608" stroke="#53C8B7" stroke-width="1.125" stroke-linecap="round" stroke-linejoin="round"/>
<path d="M45.7677 38.4613L35.4029 38.6521L31.5016 41.3683L31.8456 25.0354L33.9875 19.7196L44.3908 15.5889L46.0741 20.7139L44.544 26.7572L44.6972 29.8165L43.7028 31.2839L45.7677 38.4613ZM45.7677 38.4613L43.8937 46.0723L36.2441 43.701L32.152 47.4107H29.4752L45.7677 38.4613ZM31.6861 32.6142L38.8071 32.4556M43.7028 31.2839L36.3973 29.1285L43.7028 31.2839ZM44.544 26.7572L45.8824 26.5279L44.544 26.7572ZM45.8824 28.2103L44.6247 28.3635L45.8824 28.2103Z" stroke="#53C8B7" stroke-width="1.125" stroke-linecap="round" stroke-linejoin="round"/>
<path d="M31.5027 41.3683L36.2453 43.701M39.9361 38.5688L36.2453 43.701L35.4041 38.6521L38.8082 32.4556L36.3984 29.1285L31.8467 25.0354L44.392 15.5889L39.9361 38.5688Z" stroke="#53C8B7" stroke-width="1.125" stroke-linecap="round" stroke-linejoin="round"/>
<path d="M29.528 41.3684H27.5016L26.8513 44.4277H29.1652M32.5927 36.573L35.4468 35.5115L33.4097 34.4499L32.5927 36.573V36.573ZM33.9884 19.7197H29.476H33.9884Z" stroke="#53C8B7" stroke-width="1.125" stroke-linecap="round" stroke-linejoin="round"/>
<path d="M27.314 32.6142L20.193 32.4556M13.2324 38.4613L23.5972 38.6521L27.4985 41.3683L27.1545 25.0354L25.0126 19.7196L14.6093 15.5889L12.926 20.7139L14.4561 26.7572L14.3029 29.8165L15.2973 31.2839L13.2324 38.4613L15.1065 46.0723L22.756 43.701L26.8481 47.4107H29.5249L13.2324 38.4613ZM15.2973 31.2839L22.6028 29.1285L15.2973 31.2839ZM14.4561 26.7572L13.1168 26.5279L14.4561 26.7572ZM13.1168 28.2103L14.3755 28.3635L13.1168 28.2103Z" stroke="#53C8B7" stroke-width="1.125" stroke-linecap="round" stroke-linejoin="round"/>
<path d="M27.5003 41.3683L22.7578 43.701M19.067 38.5688L22.7578 43.701L23.599 38.6521L20.1948 32.4556L22.6046 29.1285L27.1563 25.0354L14.6111 15.5889L19.067 38.5688Z" stroke="#53C8B7" stroke-width="1.125" stroke-linecap="round" stroke-linejoin="round"/>
<path d="M25.0128 19.7197H29.5251M26.4085 36.573L23.5544 35.5115L25.5915 34.4499L26.4085 36.573V36.573Z" stroke="#53C8B7" stroke-width="1.125" stroke-linecap="round" stroke-linejoin="round"/>
</svg>
