<svg width="60" height="60" viewBox="0 0 60 60" fill="none" xmlns="http://www.w3.org/2000/svg">
<path opacity="0.15" fill-rule="evenodd" clip-rule="evenodd" d="M30 60C46.5685 60 60 46.5685 60 30C60 13.4315 46.5685 0 30 0C13.4315 0 0 13.4315 0 30C0 46.5685 13.4315 60 30 60Z" fill="#FBFBFB"/>
<path d="M33 30L32.0044 29.9067L32 29.9532V30V35V36H20V20C20 18.8954 20.8954 18 22 18H40C41.1046 18 42 18.8954 42 20V24V28H41.9981H41.9815H41.9649H41.9482H41.9313H41.9144H41.8973H41.8802H41.8629H41.8456H41.8281H41.8105H41.7929H41.7751H41.7572H41.7393H41.7212H41.703H41.6848H41.6664H41.648H41.6294H41.6108H41.592H41.5732H41.5543H41.5353H41.5161H41.497H41.4777H41.4583H41.4388H41.4193H41.3996H41.3799H41.3601H41.3402H41.3202H41.3002H41.28H41.2598H41.2395H41.2191H41.1986H41.1781H41.1575H41.1368H41.116H41.0951H41.0742H41.0532H41.0321H41.0109H40.9897H40.9684H40.947H40.9256H40.9041H40.8825H40.8608H40.8391H40.8173H40.7955H40.7735H40.7515H40.7295H40.7074H40.6852H40.6629H40.6406H40.6182H40.5958H40.5733H40.5508H40.5282H40.5055H40.4828H40.46H40.4371H40.4142H40.3913H40.3683H40.3452H40.3221H40.299H40.2757H40.2525H40.2292H40.2058H40.1824H40.1589H40.1354H40.1119H40.0883H40.0646H40.0409H40.0172H39.9934H39.9696H39.9458H39.9219H39.8979H39.8739H39.8499H39.8258H39.8018H39.7776H39.7534H39.7292H39.705H39.6807H39.6564H39.6321H39.6077H39.5833H39.5589H39.5344H39.5099H39.4854H39.4608H39.4362H39.4116H39.387H39.3623H39.3377H39.3129H39.2882H39.2635H39.2387H39.2139H39.1891H39.1642H39.1394H39.1145H39.0896H39.0647H39.0398H39.0148H38.9899H38.9649H38.9399H38.9149H38.8899H38.8649H38.8398H38.8148H38.7897H38.7647H38.7396H38.7145H38.6894H38.6644H38.6393H38.6141H38.589H38.5639H38.5388H38.5137H38.4886H38.4635H38.4383H38.4132H38.3881H38.363H38.3379H38.3128H38.2877H38.2626H38.2375H38.2124H38.1873H38.1622H38.1372H38.1121H38.0871H38.062H38.037H38.012H37.987H37.962H37.937H37.912H37.8871H37.8622H37.8372H37.8123H37.7875H37.7626H37.7378H37.7129H37.6881H37.6633H37.6386H37.6138H37.5891H37.5644H37.5398H37.5151H37.4905H37.4659H37.4414H37.4168H37.3923H37.3678H37.3434H37.319H37.2946H37.2702H37.2459H37.2216H37.1974H37.1732H37.149H37.1248H37.1007H37.0766H37.0526H37.0286H37.0046H36.9807H36.9569H36.933H36.9092H36.8855H36.8618H36.8381H36.8145H36.7909H36.7674H36.7439H36.7205H36.6971H36.6738H36.6505H36.6273H36.6041H36.581H36.5579H36.5349H36.5119H36.489H36.4661H36.4433H36.4206H36.3979H36.3752H36.3527H36.3302H36.3077H36.2853H36.263H36.2407H36.2185H36.1964H36.1743H36.1523H36.1303H36.1084H36.0866H36.0649H36.0432H36.0216H36H35.9786H35.9571H35.9358H35.9146H35.8934H35.8723H35.8512H35.8303H35.8094H35.7886H35.7678H35.7472H35.7266H35.7061H35.6857H35.6654H35.6451H35.6249H35.6048H35.5848H35.5649H35.5451H35.5253H35.5056H35.4861H35.4666H35.4472H35.4278H35.4086H35.3895H35.3704H35.3515H35.3326H35.3138H35.2952H35.2766H35.2581H35.2397H35.2214H35.2032H35.1851H35.1671H35.1492H35.1314H35.1137H35.0961H35.0786H35.0612H35.0439H35.0267H35.0096H34.9926H34.9757H34.959H34.9423H34.9257H34.9093H34.8929H34.8767H34.8606H34.8446H34.8287H34.8129H34.7972H34.7817H34.7662H34.7509H34.7357H34.7206H34.7056H34.6908H34.676H34.6614H34.6469H34.6325H34.6183H34.6041H34.5901H34.5762H34.5625H34.5488H34.5353H34.5219H34.5087H34.4955H34.4825H34.4697H34.4569H34.4443H34.4318H34.4195H34.4072H34.3951H34.3832H34.3714H34.3597H34.3481H34.3367H34.3254H34.3143H34.3033H34.2925H34.2817H34.2712H34.2607H34.2504H34.2403H34.2303H34.2204H34.2107H34.2011H34.1917H34.1824H34.1732H34.1643H34.1554H34.1467H34.1382H34.1298H34.1216H34.1135H34.1056H34.0978H34.0901H34.0827H34.0754H34.0682H34.0612H34.0544H34.0477H34.0412H34.0348H34.0286H34.0225H34.0167H34.0109H34.0054H34C33.0826 28 32.5418 28.5465 32.2828 29.0202C32.161 29.243 32.0943 29.4555 32.0575 29.606C32.0386 29.6833 32.0262 29.7497 32.0181 29.8005C32.0141 29.826 32.0111 29.848 32.0089 29.8658L32.0061 29.8894L32.0051 29.8988L32.0047 29.903L32.0045 29.9049L32.0044 29.9058C32.0044 29.9062 32.0044 29.9067 33 30Z" stroke="#53C8B7" stroke-width="2"/>
<rect x="15" y="35" width="18" height="2" rx="1" fill="#53C8B7"/>
<rect x="19" y="33" width="14" height="2" rx="1" fill="#53C8B7"/>
<rect x="32" y="28" width="12" height="14" rx="2" stroke="#53C8B7" stroke-width="2"/>
<circle cx="38" cy="39" r="1" fill="#53C8B7"/>
</svg>
