<svg width="60" height="60" viewBox="0 0 60 60" fill="none" xmlns="http://www.w3.org/2000/svg">
<path opacity="0.15" fill-rule="evenodd" clip-rule="evenodd" d="M30 60C46.5685 60 60 46.5685 60 30C60 13.4315 46.5685 0 30 0C13.4315 0 0 13.4315 0 30C0 46.5685 13.4315 60 30 60Z" fill="#FBFBFB"/>
<g clip-path="url(#clip0_6063_18214)">
<path d="M28.0573 16.5767H16C15.4477 16.5767 15 17.0244 15 17.5767V42.4229C15 42.9751 15.4477 43.4229 16 43.4229H28.0573C28.6095 43.4229 29.0573 42.9752 29.0573 42.4229V17.5767C29.0573 17.0244 28.6096 16.5767 28.0573 16.5767ZM27.0572 41.4229H17V18.5767H27.0572V41.4229Z" fill="#53C8B7"/>
<path d="M23.8758 22.0176H20.1815C19.6292 22.0176 19.1815 22.4653 19.1815 23.0176C19.1815 23.5699 19.6292 24.0176 20.1815 24.0176H23.8758C24.4281 24.0176 24.8758 23.5699 24.8758 23.0176C24.8758 22.4653 24.4281 22.0176 23.8758 22.0176Z" fill="#53C8B7"/>
<path d="M23.8758 26.6724H20.1815C19.6292 26.6724 19.1815 27.1201 19.1815 27.6724C19.1815 28.2247 19.6292 28.6724 20.1815 28.6724H23.8758C24.4281 28.6724 24.8758 28.2247 24.8758 27.6724C24.8758 27.1201 24.4281 26.6724 23.8758 26.6724Z" fill="#53C8B7"/>
<path d="M23.8758 31.3271H20.1815C19.6292 31.3271 19.1815 31.7749 19.1815 32.3272C19.1815 32.8794 19.6292 33.3272 20.1815 33.3272H23.8758C24.4281 33.3272 24.8758 32.8795 24.8758 32.3272C24.8758 31.7749 24.4281 31.3271 23.8758 31.3271Z" fill="#53C8B7"/>
<path d="M23.8758 35.9824H20.1815C19.6292 35.9824 19.1815 36.4301 19.1815 36.9824C19.1815 37.5347 19.6292 37.9825 20.1815 37.9825H23.8758C24.4281 37.9825 24.8758 37.5347 24.8758 36.9824C24.8758 36.4301 24.4281 35.9824 23.8758 35.9824Z" fill="#53C8B7"/>
<path d="M44 16.5767H31.9427C31.3905 16.5767 30.9427 17.0244 30.9427 17.5767V42.4229C30.9427 42.9751 31.3904 43.4229 31.9427 43.4229H44C44.5522 43.4229 45 42.9752 45 42.4229V17.5767C45 17.0244 44.5523 16.5767 44 16.5767ZM43 41.4229H32.9428V18.5767H43V41.4229Z" fill="#53C8B7"/>
<path d="M39.8186 22.0176H36.1242C35.572 22.0176 35.1242 22.4653 35.1242 23.0176C35.1242 23.5699 35.5719 24.0176 36.1242 24.0176H39.8186C40.3708 24.0176 40.8186 23.5699 40.8186 23.0176C40.8186 22.4653 40.3708 22.0176 39.8186 22.0176Z" fill="#53C8B7"/>
<path d="M39.8186 26.6724H36.1242C35.572 26.6724 35.1242 27.1201 35.1242 27.6724C35.1242 28.2247 35.5719 28.6724 36.1242 28.6724H39.8186C40.3708 28.6724 40.8186 28.2247 40.8186 27.6724C40.8186 27.1201 40.3708 26.6724 39.8186 26.6724Z" fill="#53C8B7"/>
<path d="M39.8186 31.3271H36.1242C35.572 31.3271 35.1242 31.7749 35.1242 32.3272C35.1242 32.8794 35.5719 33.3272 36.1242 33.3272H39.8186C40.3708 33.3272 40.8186 32.8795 40.8186 32.3272C40.8185 31.7749 40.3708 31.3271 39.8186 31.3271Z" fill="#53C8B7"/>
<path d="M39.8186 35.9824H36.1242C35.572 35.9824 35.1242 36.4301 35.1242 36.9824C35.1242 37.5347 35.5719 37.9825 36.1242 37.9825H39.8186C40.3708 37.9825 40.8186 37.5347 40.8186 36.9824C40.8186 36.4301 40.3708 35.9824 39.8186 35.9824Z" fill="#53C8B7"/>
</g>
<defs>
<clipPath id="clip0_6063_18214">
<rect width="30" height="30" fill="white" transform="translate(15 15)"/>
</clipPath>
</defs>
</svg>
