<svg width="60" height="60" viewBox="0 0 60 60" fill="none" xmlns="http://www.w3.org/2000/svg">
<path opacity="0.15" fill-rule="evenodd" clip-rule="evenodd" d="M30 60C46.5685 60 60 46.5685 60 30C60 13.4315 46.5685 0 30 0C13.4315 0 0 13.4315 0 30C0 46.5685 13.4315 60 30 60Z" fill="#FBFBFB"/>
<path d="M38.75 20H36.25C35.9185 20 35.6005 20.1317 35.3661 20.3661C35.1317 20.6005 35 20.9185 35 21.25C35 21.5815 35.1317 21.8995 35.3661 22.1339C35.6005 22.3683 35.9185 22.5 36.25 22.5H37.5V37.5H36.25C35.9185 37.5 35.6005 37.6317 35.3661 37.8661C35.1317 38.1005 35 38.4185 35 38.75C35 39.0815 35.1317 39.3995 35.3661 39.6339C35.6005 39.8683 35.9185 40 36.25 40H38.75C39.0815 40 39.3995 39.8683 39.6339 39.6339C39.8683 39.3995 40 39.0815 40 38.75V21.25C40 20.9185 39.8683 20.6005 39.6339 20.3661C39.3995 20.1317 39.0815 20 38.75 20ZM29.75 24.25C29.5511 23.9848 29.255 23.8094 28.9268 23.7626C28.5986 23.7157 28.2652 23.8011 28 24C27.7348 24.1989 27.5594 24.495 27.5126 24.8232C27.4657 25.1514 27.5511 25.4848 27.75 25.75L30 28.75H20C19.6685 28.75 19.3505 28.8817 19.1161 29.1161C18.8817 29.3505 18.75 29.6685 18.75 30C18.75 30.3315 18.8817 30.6495 19.1161 30.8839C19.3505 31.1183 19.6685 31.25 20 31.25H30.1125L27.9625 34.3C27.8666 34.4344 27.7982 34.5864 27.7614 34.7473C27.7245 34.9082 27.7199 35.0748 27.7478 35.2375C27.7757 35.4002 27.8355 35.5558 27.9239 35.6952C28.0122 35.8347 28.1273 35.9553 28.2625 36.05C28.475 36.1983 28.7284 36.277 28.9875 36.275C29.1858 36.2741 29.3811 36.226 29.5571 36.1347C29.7332 36.0434 29.885 35.9116 30 35.75L33.525 30.75C33.6814 30.5359 33.7657 30.2776 33.7657 30.0125C33.7657 29.7474 33.6814 29.4891 33.525 29.275L29.75 24.25Z" fill="#53C8B7"/>
</svg>
