<svg width="60" height="60" viewBox="0 0 60 60" fill="none" xmlns="http://www.w3.org/2000/svg">
<path opacity="0.15" fill-rule="evenodd" clip-rule="evenodd" d="M30 60C46.5685 60 60 46.5685 60 30C60 13.4315 46.5685 0 30 0C13.4315 0 0 13.4315 0 30C0 46.5685 13.4315 60 30 60Z" fill="#FBFBFB"/>
<g clip-path="url(#clip0_5887_23288)">
<path d="M44.7364 17.4842C44.5567 17.3045 44.3082 17.2087 44.0545 17.2219C43.314 17.2595 36.7329 17.6754 33.7418 20.6665C31.4691 22.9392 30.961 26.1088 32.3679 28.3291C31.2851 29.3857 30.4425 30.641 29.8776 32.0149C29.7206 31.6925 29.5348 31.3879 29.3205 31.103C28.9811 30.652 28.5833 30.2597 28.1352 29.928C28.3677 28.9321 28.2311 27.874 27.7304 26.8815C27.1285 25.6883 26.0486 24.7081 24.6896 24.1215C23.2812 23.5135 21.3572 23.4031 18.9713 23.794C17.2009 24.084 15.766 24.5621 15.6079 24.6157C15.3684 24.6972 15.1735 24.877 15.0732 25.1092C14.973 25.3414 14.9756 25.6065 15.0808 25.8374C15.1501 25.989 15.7864 27.3615 16.7893 28.8483C18.1414 30.8527 19.5411 32.1773 20.9494 32.7854C21.7713 33.1402 22.6201 33.3081 23.4357 33.3081C25.0127 33.3081 26.4644 32.6793 27.3525 31.5579C27.558 31.7389 27.7451 31.9409 27.9122 32.1628C28.2572 32.6212 28.4972 33.1605 28.6256 33.7656L29.0588 35.8075C29.0541 35.94 29.0509 36.0728 29.0509 36.2059V41.8981C29.0509 42.3847 29.4454 42.7792 29.932 42.7792C30.4186 42.7792 30.8131 42.3847 30.8131 41.8981V36.2059C30.8131 33.7146 31.8075 31.355 33.5649 29.6227C34.4501 30.2821 35.5319 30.6069 36.6624 30.6069C38.3523 30.6069 40.1492 29.8839 41.5542 28.479C44.5462 25.4869 44.9612 18.9068 44.9987 18.1666C45.0118 17.9127 44.9161 17.6639 44.7364 17.4842Z" fill="#53C8B7"/>
</g>
<defs>
<clipPath id="clip0_5887_23288">
<rect width="30" height="30" fill="white" transform="translate(15 15)"/>
</clipPath>
</defs>
</svg>
