<svg width="60" height="60" viewBox="0 0 60 60" fill="none" xmlns="http://www.w3.org/2000/svg">
<path opacity="0.15" fill-rule="evenodd" clip-rule="evenodd" d="M30 60C46.5685 60 60 46.5685 60 30C60 13.4315 46.5685 0 30 0C13.4315 0 0 13.4315 0 30C0 46.5685 13.4315 60 30 60Z" fill="#FBFBFB"/>
<path d="M15.8789 20.2734C16.3642 20.2734 16.7578 19.8799 16.7578 19.3945V16.7578H19.3945C19.8799 16.7578 20.2734 16.3643 20.2734 15.8789C20.2734 15.3935 19.8799 15 19.3945 15H15.8789C15.3935 15 15 15.3935 15 15.8789V19.3945C15 19.8799 15.3935 20.2734 15.8789 20.2734Z" fill="#53C8B7"/>
<path d="M19.3945 43.2422H16.7578V40.6055C16.7578 40.1201 16.3642 39.7266 15.8789 39.7266C15.3935 39.7266 15 40.1201 15 40.6055V44.1211C15 44.6065 15.3935 45 15.8789 45H19.3945C19.8799 45 20.2734 44.6065 20.2734 44.1211C20.2734 43.6357 19.8799 43.2422 19.3945 43.2422Z" fill="#53C8B7"/>
<path d="M44.1211 39.7266C43.6357 39.7266 43.2422 40.1201 43.2422 40.6055V43.2422H40.6055C40.1201 43.2422 39.7266 43.6357 39.7266 44.1211C39.7266 44.6065 40.1201 45 40.6055 45H44.1211C44.6064 45 45 44.6065 45 44.1211V40.6055C45 40.1201 44.6064 39.7266 44.1211 39.7266Z" fill="#53C8B7"/>
<path d="M44.1211 15H40.6055C40.1201 15 39.7266 15.3935 39.7266 15.8789C39.7266 16.3643 40.1201 16.7578 40.6055 16.7578H43.2422V19.3945C43.2422 19.8799 43.6357 20.2734 44.1211 20.2734C44.6064 20.2734 45 19.8799 45 19.3945V15.8789C45 15.3935 44.6064 15 44.1211 15Z" fill="#53C8B7"/>
<path d="M24.2763 27.7049L37.6359 20.1255L35.5581 18.9414L22.1986 26.5208L24.2763 27.7049Z" fill="#53C8B7"/>
<path d="M17.5667 23.3696C17.5667 23.6853 17.736 23.9768 18.0104 24.1332L20.4215 25.5073L33.7811 17.9279L30.4351 16.021C30.1654 15.8673 29.8345 15.8673 29.5648 16.021L18.0104 22.606C17.736 22.7622 17.5667 23.0538 17.5667 23.3696Z" fill="#53C8B7"/>
<path d="M41.9895 22.6061L39.413 21.1377L26.0534 28.7171L29.5649 30.7183C29.6998 30.7951 29.8499 30.8336 30 30.8336C30.1502 30.8336 30.3003 30.7952 30.4352 30.7183L41.9896 24.1332C42.264 23.9769 42.4333 23.6854 42.4333 23.3696C42.4333 23.0539 42.2639 22.7624 41.9895 22.6061Z" fill="#53C8B7"/>
<path d="M41.9896 29.1911L39.3272 27.6738L31.3055 32.2456C30.9083 32.4718 30.4569 32.5914 30 32.5914C29.543 32.5914 29.0917 32.4718 28.6947 32.2456L20.6726 27.6738L18.0103 29.1911C17.7359 29.3474 17.5666 29.639 17.5666 29.9547C17.5666 30.2705 17.736 30.562 18.0103 30.7183L29.5647 37.3034C29.6997 37.3803 29.8498 37.4187 29.9999 37.4187C30.1501 37.4187 30.3002 37.3803 30.4352 37.3034L41.9895 30.7183C42.2639 30.562 42.4332 30.2704 42.4332 29.9547C42.4333 29.639 42.264 29.3474 41.9896 29.1911Z" fill="#53C8B7"/>
<path d="M42.4333 36.5402C42.4333 36.2245 42.2639 35.933 41.9896 35.7766L39.3272 34.2593L31.3056 38.831C30.9081 39.0573 30.4568 39.1769 30 39.1769C29.5432 39.1769 29.0919 39.0573 28.6948 38.8312L20.6727 34.2594L18.0103 35.7767C17.7359 35.933 17.5666 36.2245 17.5666 36.5403C17.5666 36.856 17.736 37.1475 18.0103 37.3039L29.5648 43.8889C29.6997 43.9657 29.8498 44.0042 29.9999 44.0042C30.1501 44.0042 30.3002 43.9657 30.4351 43.8889L41.9895 37.3039C42.264 37.1475 42.4333 36.856 42.4333 36.5402Z" fill="#53C8B7"/>
</svg>
