<svg width="60" height="60" viewBox="0 0 60 60" fill="none" xmlns="http://www.w3.org/2000/svg">
<path opacity="0.15" fill-rule="evenodd" clip-rule="evenodd" d="M30 60C46.5685 60 60 46.5685 60 30C60 13.4315 46.5685 0 30 0C13.4315 0 0 13.4315 0 30C0 46.5685 13.4315 60 30 60Z" fill="#FBFBFB"/>
<path d="M30.9388 21.25C29.7288 28.4625 25.0875 34.5125 18.75 37.6612M18.75 21.25H33.75H18.75ZM26.25 18.75V21.25V18.75ZM27.56 33.125C25.6351 31.1323 24.0943 28.8017 23.015 26.25L27.56 33.125ZM30.625 37.5H39.375H30.625ZM28.75 41.25L35 28.75L41.25 41.25H28.75Z" stroke="#53C8B7" stroke-width="2" stroke-linecap="round" stroke-linejoin="round"/>
</svg>
