<svg width="60" height="60" viewBox="0 0 60 60" fill="none" xmlns="http://www.w3.org/2000/svg">
<path opacity="0.15" fill-rule="evenodd" clip-rule="evenodd" d="M30 60C46.5685 60 60 46.5685 60 30C60 13.4315 46.5685 0 30 0C13.4315 0 0 13.4315 0 30C0 46.5685 13.4315 60 30 60Z" fill="#FBFBFB"/>
<path d="M30 36C31.5913 36 33.1174 35.3679 34.2426 34.2426C35.3679 33.1174 36 31.5913 36 30C36 28.4087 35.3679 26.8826 34.2426 25.7574C33.1174 24.6321 31.5913 24 30 24V36Z" fill="#53C8B7"/>
<path fill-rule="evenodd" clip-rule="evenodd" d="M30 15C21.7155 15 15 21.7155 15 30C15 38.2845 21.7155 45 30 45C38.2845 45 45 38.2845 45 30C45 21.7155 38.2845 15 30 15ZM30 18V24C28.4087 24 26.8826 24.6321 25.7574 25.7574C24.6321 26.8826 24 28.4087 24 30C24 31.5913 24.6321 33.1174 25.7574 34.2426C26.8826 35.3679 28.4087 36 30 36V42C33.1826 42 36.2348 40.7357 38.4853 38.4853C40.7357 36.2348 42 33.1826 42 30C42 26.8174 40.7357 23.7652 38.4853 21.5147C36.2348 19.2643 33.1826 18 30 18Z" fill="#53C8B7"/>
</svg>
