<svg viewBox="0 0 252 195" fill="none" xmlns="http://www.w3.org/2000/svg">
<mask id="path-1-inside-1_5887_20567" fill="white">
<path d="M169.399 80.3567C169.399 100.594 152.993 117 132.756 117C112.518 117 96.1129 100.594 96.1129 80.3567C96.1129 60.1194 112.518 43.7139 132.756 43.7139C152.993 43.7139 169.399 60.1194 169.399 80.3567ZM110.22 80.3567C110.22 92.8027 120.31 102.892 132.756 102.892C145.202 102.892 155.291 92.8027 155.291 80.3567C155.291 67.9108 145.202 57.8214 132.756 57.8214C120.31 57.8214 110.22 67.9108 110.22 80.3567Z"/>
</mask>
<path d="M169.399 80.3567C169.399 100.594 152.993 117 132.756 117C112.518 117 96.1129 100.594 96.1129 80.3567C96.1129 60.1194 112.518 43.7139 132.756 43.7139C152.993 43.7139 169.399 60.1194 169.399 80.3567ZM110.22 80.3567C110.22 92.8027 120.31 102.892 132.756 102.892C145.202 102.892 155.291 92.8027 155.291 80.3567C155.291 67.9108 145.202 57.8214 132.756 57.8214C120.31 57.8214 110.22 67.9108 110.22 80.3567Z" fill="#FBFBFB" stroke="#FBFBFB" stroke-width="20.1878" stroke-linejoin="round" mask="url(#path-1-inside-1_5887_20567)"/>
<rect x="155.412" y="87.2719" width="87.115" height="13.8292" rx="2.97976" transform="rotate(-90 155.412 87.2719)" fill="#FBFBFB" stroke="#FBFBFB" stroke-width="0.313659"/>
<mask id="path-3-outside-2_5887_20567" maskUnits="userSpaceOnUse" x="79.9703" y="42" width="91" height="77" fill="black">
<rect fill="white" x="79.9703" y="42" width="91" height="77"/>
<path fill-rule="evenodd" clip-rule="evenodd" d="M169.97 80.2052C169.954 74.2998 168.537 68.4396 165.78 63.1251C161.695 55.2504 154.937 49.0893 146.719 45.7476C138.502 42.4059 129.362 42.1025 120.941 44.8916C112.519 47.6808 105.368 53.3799 100.769 60.9663C98.485 64.7348 96.9051 68.8463 96.0679 73.1035H88.1689C84.1932 73.1035 80.9703 76.3263 80.9703 80.302C80.9703 84.2776 84.1932 87.5005 88.1689 87.5005H96.0681C97.6958 95.7769 102.085 103.271 108.535 108.744C115.299 114.484 123.888 117.624 132.759 117.603C139.219 117.587 145.522 115.895 151.072 112.747C154.521 110.79 154.848 106.185 152.267 103.173C149.686 100.162 145.164 99.9428 141.504 101.47C138.743 102.623 135.762 103.233 132.724 103.24C127.269 103.254 121.987 101.322 117.827 97.7927C114.595 95.0499 112.204 91.4818 110.888 87.5005H162.772C163.556 87.5005 164.312 87.375 165.019 87.1429C167.69 86.6032 169.845 84.5227 169.947 81.6066C169.961 81.2039 169.969 80.8012 169.97 80.3987C169.97 80.3665 169.97 80.3343 169.97 80.302C169.97 80.2697 169.97 80.2374 169.97 80.2052ZM110.888 73.1035H154.449C154.068 71.9522 153.595 70.8268 153.031 69.7386C150.519 64.8959 146.363 61.1071 141.309 59.052C136.256 56.997 130.635 56.8104 125.456 58.5256C120.277 60.2408 115.879 63.7457 113.051 68.411C112.15 69.8989 111.426 71.4738 110.888 73.1035Z"/>
</mask>
<path fill-rule="evenodd" clip-rule="evenodd" d="M169.97 80.2052C169.954 74.2998 168.537 68.4396 165.78 63.1251C161.695 55.2504 154.937 49.0893 146.719 45.7476C138.502 42.4059 129.362 42.1025 120.941 44.8916C112.519 47.6808 105.368 53.3799 100.769 60.9663C98.485 64.7348 96.9051 68.8463 96.0679 73.1035H88.1689C84.1932 73.1035 80.9703 76.3263 80.9703 80.302C80.9703 84.2776 84.1932 87.5005 88.1689 87.5005H96.0681C97.6958 95.7769 102.085 103.271 108.535 108.744C115.299 114.484 123.888 117.624 132.759 117.603C139.219 117.587 145.522 115.895 151.072 112.747C154.521 110.79 154.848 106.185 152.267 103.173C149.686 100.162 145.164 99.9428 141.504 101.47C138.743 102.623 135.762 103.233 132.724 103.24C127.269 103.254 121.987 101.322 117.827 97.7927C114.595 95.0499 112.204 91.4818 110.888 87.5005H162.772C163.556 87.5005 164.312 87.375 165.019 87.1429C167.69 86.6032 169.845 84.5227 169.947 81.6066C169.961 81.2039 169.969 80.8012 169.97 80.3987C169.97 80.3665 169.97 80.3343 169.97 80.302C169.97 80.2697 169.97 80.2374 169.97 80.2052ZM110.888 73.1035H154.449C154.068 71.9522 153.595 70.8268 153.031 69.7386C150.519 64.8959 146.363 61.1071 141.309 59.052C136.256 56.997 130.635 56.8104 125.456 58.5256C120.277 60.2408 115.879 63.7457 113.051 68.411C112.15 69.8989 111.426 71.4738 110.888 73.1035Z" fill="url(#paint0_linear_5887_20567)"/>
<path d="M169.97 80.2052L168.97 80.2078L168.97 80.2185L169.97 80.2052ZM165.78 63.1251L164.892 63.5856V63.5856L165.78 63.1251ZM146.719 45.7476L147.096 44.8213V44.8213L146.719 45.7476ZM120.941 44.8916L121.255 45.8409L120.941 44.8916ZM100.769 60.9663L101.624 61.4847L100.769 60.9663ZM96.0679 73.1035V74.1035C96.5458 74.1035 96.9569 73.7653 97.0491 73.2964L96.0679 73.1035ZM96.0681 87.5005L97.0493 87.3075C96.9571 86.8386 96.546 86.5005 96.0681 86.5005V87.5005ZM108.535 108.744L107.888 109.507L108.535 108.744ZM132.759 117.603L132.761 118.603L132.759 117.603ZM151.072 112.747L150.578 111.877L151.072 112.747ZM152.267 103.173L151.508 103.824L152.267 103.173ZM141.504 101.47L141.889 102.393L141.504 101.47ZM132.724 103.24L132.722 102.24L132.724 103.24ZM117.827 97.7927L118.474 97.0302L117.827 97.7927ZM110.888 87.5005V86.5005C110.567 86.5005 110.266 86.6546 110.078 86.9148C109.89 87.1749 109.838 87.5096 109.939 87.8143L110.888 87.5005ZM165.019 87.1429L164.821 86.1627C164.782 86.1705 164.744 86.1805 164.707 86.1928L165.019 87.1429ZM169.947 81.6066L170.946 81.6415V81.6415L169.947 81.6066ZM169.97 80.3987L168.97 80.3854L168.97 80.3961L169.97 80.3987ZM110.888 73.1035L109.938 72.7897C109.837 73.0945 109.889 73.4291 110.077 73.6892C110.265 73.9494 110.567 74.1035 110.888 74.1035V73.1035ZM154.449 73.1035V74.1035C154.77 74.1035 155.071 73.9494 155.259 73.6892C155.447 73.4291 155.499 73.0945 155.398 72.7897L154.449 73.1035ZM153.031 69.7386L152.143 70.1991V70.1991L153.031 69.7386ZM141.309 59.052L141.686 58.1257L141.309 59.052ZM125.456 58.5256L125.771 59.4749L125.456 58.5256ZM113.051 68.411L112.196 67.8927V67.8927L113.051 68.411ZM170.97 80.2026C170.954 74.139 169.498 68.1216 166.667 62.6646L164.892 63.5856C167.575 68.7576 168.955 74.4607 168.97 80.2078L170.97 80.2026ZM166.667 62.6646C162.473 54.5788 155.534 48.2525 147.096 44.8213L146.343 46.674C154.34 49.9261 160.917 55.9219 164.892 63.5856L166.667 62.6646ZM147.096 44.8213C138.658 41.39 129.273 41.0784 120.626 43.9423L121.255 45.8409C129.45 43.1265 138.345 43.4219 146.343 46.674L147.096 44.8213ZM120.626 43.9423C111.979 46.8062 104.636 52.6582 99.914 60.448L101.624 61.4847C106.099 54.1017 113.059 48.5553 121.255 45.8409L120.626 43.9423ZM99.914 60.448C97.5686 64.3174 95.9464 68.5392 95.0867 72.9105L97.0491 73.2964C97.8639 69.1534 99.4014 65.1521 101.624 61.4847L99.914 60.448ZM88.1689 74.1035H96.0679V72.1035H88.1689V74.1035ZM81.9703 80.302C81.9703 76.8786 84.7455 74.1035 88.1689 74.1035V72.1035C83.6409 72.1035 79.9703 75.7741 79.9703 80.302H81.9703ZM88.1689 86.5005C84.7455 86.5005 81.9703 83.7253 81.9703 80.302H79.9703C79.9703 84.8299 83.6409 88.5005 88.1689 88.5005V86.5005ZM96.0681 86.5005H88.1689V88.5005H96.0681V86.5005ZM95.0869 87.6935C96.7583 96.1918 101.265 103.887 107.888 109.507L109.182 107.982C102.905 102.655 98.6334 95.362 97.0493 87.3075L95.0869 87.6935ZM107.888 109.507C114.834 115.4 123.652 118.625 132.761 118.603L132.756 116.603C124.123 116.624 115.765 113.567 109.182 107.982L107.888 109.507ZM132.761 118.603C139.395 118.587 145.866 116.849 151.565 113.617L150.578 111.877C145.177 114.941 139.044 116.588 132.756 116.603L132.761 118.603ZM151.565 113.617C155.679 111.283 155.923 105.904 153.026 102.523L151.508 103.824C153.772 106.466 153.363 110.298 150.578 111.877L151.565 113.617ZM153.026 102.523C150.056 99.0565 145.002 98.9268 141.119 100.548L141.889 102.393C145.326 100.959 149.316 101.267 151.508 103.824L153.026 102.523ZM141.119 100.548C138.478 101.65 135.627 102.233 132.722 102.24L132.726 104.24C135.897 104.233 139.008 103.596 141.889 102.393L141.119 100.548ZM132.722 102.24C127.504 102.253 122.453 100.406 118.474 97.0302L117.18 98.5552C121.521 102.239 127.033 104.254 132.726 104.24L132.722 102.24ZM118.474 97.0302C115.383 94.407 113.096 90.9944 111.838 87.1867L109.939 87.8143C111.312 91.9691 113.807 95.6929 117.18 98.5552L118.474 97.0302ZM162.772 86.5005H110.888V88.5005H162.772V86.5005ZM164.707 86.1928C164.099 86.3922 163.449 86.5005 162.772 86.5005V88.5005C163.664 88.5005 164.524 88.3577 165.331 88.093L164.707 86.1928ZM165.217 88.1231C168.263 87.5076 170.825 85.0959 170.946 81.6415L168.948 81.5716C168.864 83.9495 167.117 85.6987 164.821 86.1627L165.217 88.1231ZM170.946 81.6415C170.961 81.228 170.969 80.8146 170.97 80.4013L168.97 80.3961C168.969 80.7878 168.961 81.1797 168.948 81.5716L170.946 81.6415ZM168.97 80.302C168.97 80.33 168.97 80.3578 168.97 80.3854L170.97 80.412C170.97 80.3752 170.97 80.3385 170.97 80.302H168.97ZM168.97 80.2185C168.97 80.2461 168.97 80.2739 168.97 80.302H170.97C170.97 80.2654 170.97 80.2288 170.97 80.192L168.97 80.2185ZM110.888 74.1035H154.449V72.1035H110.888V74.1035ZM152.143 70.1991C152.683 71.2399 153.135 72.3162 153.499 73.4172L155.398 72.7897C155.001 71.5882 154.507 70.4137 153.918 69.2781L152.143 70.1991ZM140.932 59.9784C145.766 61.9438 149.74 65.5675 152.143 70.1991L153.918 69.2781C151.297 64.2243 146.96 60.2703 141.686 58.1257L140.932 59.9784ZM125.771 59.4749C130.724 57.8344 136.099 58.013 140.932 59.9784L141.686 58.1257C136.412 55.9811 130.546 55.7863 125.142 57.5763L125.771 59.4749ZM113.907 68.9294C116.611 64.4674 120.817 61.1154 125.771 59.4749L125.142 57.5763C119.737 59.3663 115.147 63.0239 112.196 67.8927L113.907 68.9294ZM111.837 73.4172C112.352 71.8586 113.044 70.3524 113.907 68.9294L112.196 67.8927C111.255 69.4454 110.5 71.0889 109.938 72.7897L111.837 73.4172Z" fill="url(#paint1_linear_5887_20567)" mask="url(#path-3-outside-2_5887_20567)"/>
<mask id="path-5-outside-3_5887_20567" maskUnits="userSpaceOnUse" x="-0.0296631" y="134.282" width="252" height="61" fill="black">
<rect fill="white" x="-0.0296631" y="134.282" width="252" height="61"/>
<path d="M18.4046 148.297C25.1541 148.297 30.3941 151.463 34.1246 157.794C35.4184 160.289 36.0653 162.985 36.0653 165.885V166.588C35.6772 168.763 34.5882 169.85 32.7984 169.85H8.57156C9.19691 171.96 10.9544 173.783 13.8439 175.318C15.5474 175.958 17.1431 176.277 18.631 176.277C20.3561 176.277 22.4263 175.68 24.8414 174.487H25.8765C27.9035 174.87 28.917 175.915 28.917 177.62V177.972C28.917 180.488 25.7147 182.161 19.3103 182.993H18.4046C12.108 182.993 7.0621 180.083 3.26688 174.263C1.73585 171.513 0.970337 168.635 0.970337 165.629C0.970337 159.276 4.00004 154.224 10.0595 150.472C13.0137 149.022 15.7954 148.297 18.4046 148.297ZM7.98934 163.263H29.1757C29.1757 162.474 28.2808 160.886 26.491 158.498C24.0759 156.238 21.7039 155.108 19.375 155.108H18.0488C14.5124 155.108 11.6013 156.835 9.31551 160.289C8.51765 161.653 8.07559 162.644 7.98934 163.263Z"/>
<path d="M45.0566 165.437V165.789C45.0566 170.159 47.2777 173.442 51.7198 175.638C53.0999 176.149 54.3398 176.405 55.4396 176.405H56.3776C60.0434 176.405 63.0731 174.583 65.4667 170.937C66.3293 169.232 66.7605 167.601 66.7605 166.045V165.565C66.7605 161.365 64.6581 158.146 60.4531 155.908C59.0084 155.268 57.4989 154.948 55.9248 154.948H55.7954C51.3317 154.948 47.9677 157.251 45.7035 161.856C45.2723 163.263 45.0566 164.456 45.0566 165.437ZM66.7929 179.347C64.1621 181.777 60.6903 182.993 56.3776 182.993H55.4396C49.488 182.993 44.5283 180.051 40.5606 174.167C39.1158 171.31 38.3934 168.443 38.3934 165.565C38.3934 159.127 41.5849 154.021 47.9677 150.248C50.6848 148.99 53.3371 148.361 55.9248 148.361C62.5448 148.361 67.7848 151.559 71.6447 157.954C72.8307 160.576 73.4237 163.273 73.4237 166.045V179.891C73.4237 181.596 72.3671 182.63 70.2539 182.993H70.0275C68.5611 182.993 67.4721 182.14 66.7605 180.434V180.083L66.7929 179.347Z"/>
<path d="M100.852 171.577C100.83 171.15 100.388 170.894 99.5259 170.809C88.6146 168.4 82.7924 166.865 82.0592 166.204C79.8382 164.542 78.7276 162.484 78.7276 160.033C78.7276 156.707 81.0781 153.552 85.779 150.567C88.3666 149.224 90.9219 148.553 93.4449 148.553C99.3534 148.553 104.022 151.25 107.451 156.643L107.58 157.826V158.018C107.58 159.83 106.48 160.896 104.281 161.216C102.814 161.216 101.456 160.193 100.205 158.146C98.2428 156.249 95.9894 155.3 93.4449 155.3C90.1241 155.3 87.5256 156.835 85.6496 159.905L85.5849 160.225C85.5849 160.651 86.5121 160.939 88.3666 161.088C97.639 163.305 102.76 164.595 103.731 164.957C106.383 166.684 107.709 168.869 107.709 171.513V171.609C107.709 175.254 105.1 178.548 99.8817 181.49C97.6175 182.492 95.2347 182.993 92.7333 182.993C87.558 182.993 83.1913 180.605 79.6333 175.83C79.1805 175.19 78.9541 174.572 78.9541 173.975V173.271C78.9541 171.545 80.1401 170.553 82.5121 170.298C83.655 170.298 85.0027 171.395 86.5553 173.591C88.4529 175.339 90.674 176.213 93.2185 176.213C96.2374 176.213 98.7388 174.817 100.723 172.024L100.852 171.577Z"/>
<path d="M124.916 169.786C130.286 156.846 133.186 150.13 133.617 149.64C134.372 149.022 135.159 148.713 135.979 148.713C138.049 149.097 139.084 150.12 139.084 151.783V151.974C138.998 152.635 135.256 161.685 127.86 179.123C124.345 187.757 122.318 192.415 121.779 193.098C121.24 193.503 120.539 193.822 119.676 194.057C117.498 193.588 116.409 192.618 116.409 191.147V190.603C116.409 190.198 118.081 186.009 121.423 178.036L110.749 152.294V151.911C111.159 149.864 112.237 148.841 113.984 148.841C115.73 148.841 117.121 150.525 118.156 153.893C121.649 162.037 123.903 167.334 124.916 169.786Z"/>
<path d="M172.593 135.282H173.175C175.224 135.709 176.248 136.679 176.248 138.192V162.111L176.378 166.204C176.378 169.573 174.997 173.08 172.237 176.725C168.334 180.903 163.935 182.993 159.04 182.993H158.07C153.283 182.993 148.841 180.786 144.743 176.373C142.221 172.856 140.959 169.221 140.959 165.469C140.959 159.798 143.504 155.034 148.593 151.175C151.827 149.043 155.191 147.977 158.684 147.977C163.17 147.977 166.836 149.235 169.682 151.751V140.271L169.553 138.192C170.178 136.252 171.191 135.282 172.593 135.282ZM147.655 165.117V165.725C147.655 170.244 150.059 173.613 154.868 175.83C156.118 176.192 157.261 176.373 158.296 176.373H159.04C163.482 176.373 166.846 174.007 169.132 169.274C169.499 167.846 169.682 166.748 169.682 165.981V165.245C169.682 160.747 167.245 157.379 162.372 155.14C160.884 154.778 159.73 154.597 158.911 154.597H158.426C153.984 154.597 150.62 156.931 148.334 161.6C147.881 162.9 147.655 164.073 147.655 165.117Z"/>
<path d="M196.916 148.297C203.666 148.297 208.906 151.463 212.636 157.794C213.93 160.289 214.577 162.985 214.577 165.885V166.588C214.189 168.763 213.1 169.85 211.31 169.85H187.083C187.708 171.96 189.466 173.783 192.355 175.318C194.059 175.958 195.655 176.277 197.143 176.277C198.868 176.277 200.938 175.68 203.353 174.487H204.388C206.415 174.87 207.428 175.915 207.428 177.62V177.972C207.428 180.488 204.226 182.161 197.822 182.993H196.916C190.62 182.993 185.574 180.083 181.778 174.263C180.247 171.513 179.482 168.635 179.482 165.629C179.482 159.276 182.512 154.224 188.571 150.472C191.525 149.022 194.307 148.297 196.916 148.297ZM186.501 163.263H207.687C207.687 162.474 206.792 160.886 205.003 158.498C202.587 156.238 200.215 155.108 197.887 155.108H196.56C193.024 155.108 190.113 156.835 187.827 160.289C187.029 161.653 186.587 162.644 186.501 163.263Z"/>
<path d="M220.075 148.169H220.301C222.026 148.169 223.428 149.683 224.506 152.71L234.016 172.024C241.024 157.315 244.819 149.651 245.401 149.033C246.178 148.457 246.954 148.169 247.73 148.169C249.93 148.574 251.03 149.651 251.03 151.399V151.527C251.03 152.081 249.218 156.068 245.596 163.486L236.506 181.937C235.558 182.641 234.727 182.993 234.016 182.993H233.919C232.086 182.993 230.566 181.266 229.358 177.812C221.53 162.015 217.379 153.424 216.905 152.038V151.207C217.293 149.182 218.35 148.169 220.075 148.169Z"/>
</mask>
<path d="M18.4046 148.297C25.1541 148.297 30.3941 151.463 34.1246 157.794C35.4184 160.289 36.0653 162.985 36.0653 165.885V166.588C35.6772 168.763 34.5882 169.85 32.7984 169.85H8.57156C9.19691 171.96 10.9544 173.783 13.8439 175.318C15.5474 175.958 17.1431 176.277 18.631 176.277C20.3561 176.277 22.4263 175.68 24.8414 174.487H25.8765C27.9035 174.87 28.917 175.915 28.917 177.62V177.972C28.917 180.488 25.7147 182.161 19.3103 182.993H18.4046C12.108 182.993 7.0621 180.083 3.26688 174.263C1.73585 171.513 0.970337 168.635 0.970337 165.629C0.970337 159.276 4.00004 154.224 10.0595 150.472C13.0137 149.022 15.7954 148.297 18.4046 148.297ZM7.98934 163.263H29.1757C29.1757 162.474 28.2808 160.886 26.491 158.498C24.0759 156.238 21.7039 155.108 19.375 155.108H18.0488C14.5124 155.108 11.6013 156.835 9.31551 160.289C8.51765 161.653 8.07559 162.644 7.98934 163.263Z" fill="#FBFBFB"/>
<path d="M45.0566 165.437V165.789C45.0566 170.159 47.2777 173.442 51.7198 175.638C53.0999 176.149 54.3398 176.405 55.4396 176.405H56.3776C60.0434 176.405 63.0731 174.583 65.4667 170.937C66.3293 169.232 66.7605 167.601 66.7605 166.045V165.565C66.7605 161.365 64.6581 158.146 60.4531 155.908C59.0084 155.268 57.4989 154.948 55.9248 154.948H55.7954C51.3317 154.948 47.9677 157.251 45.7035 161.856C45.2723 163.263 45.0566 164.456 45.0566 165.437ZM66.7929 179.347C64.1621 181.777 60.6903 182.993 56.3776 182.993H55.4396C49.488 182.993 44.5283 180.051 40.5606 174.167C39.1158 171.31 38.3934 168.443 38.3934 165.565C38.3934 159.127 41.5849 154.021 47.9677 150.248C50.6848 148.99 53.3371 148.361 55.9248 148.361C62.5448 148.361 67.7848 151.559 71.6447 157.954C72.8307 160.576 73.4237 163.273 73.4237 166.045V179.891C73.4237 181.596 72.3671 182.63 70.2539 182.993H70.0275C68.5611 182.993 67.4721 182.14 66.7605 180.434V180.083L66.7929 179.347Z" fill="#FBFBFB"/>
<path d="M100.852 171.577C100.83 171.15 100.388 170.894 99.5259 170.809C88.6146 168.4 82.7924 166.865 82.0592 166.204C79.8382 164.542 78.7276 162.484 78.7276 160.033C78.7276 156.707 81.0781 153.552 85.779 150.567C88.3666 149.224 90.9219 148.553 93.4449 148.553C99.3534 148.553 104.022 151.25 107.451 156.643L107.58 157.826V158.018C107.58 159.83 106.48 160.896 104.281 161.216C102.814 161.216 101.456 160.193 100.205 158.146C98.2428 156.249 95.9894 155.3 93.4449 155.3C90.1241 155.3 87.5256 156.835 85.6496 159.905L85.5849 160.225C85.5849 160.651 86.5121 160.939 88.3666 161.088C97.639 163.305 102.76 164.595 103.731 164.957C106.383 166.684 107.709 168.869 107.709 171.513V171.609C107.709 175.254 105.1 178.548 99.8817 181.49C97.6175 182.492 95.2347 182.993 92.7333 182.993C87.558 182.993 83.1913 180.605 79.6333 175.83C79.1805 175.19 78.9541 174.572 78.9541 173.975V173.271C78.9541 171.545 80.1401 170.553 82.5121 170.298C83.655 170.298 85.0027 171.395 86.5553 173.591C88.4529 175.339 90.674 176.213 93.2185 176.213C96.2374 176.213 98.7388 174.817 100.723 172.024L100.852 171.577Z" fill="#FBFBFB"/>
<path d="M124.916 169.786C130.286 156.846 133.186 150.13 133.617 149.64C134.372 149.022 135.159 148.713 135.979 148.713C138.049 149.097 139.084 150.12 139.084 151.783V151.974C138.998 152.635 135.256 161.685 127.86 179.123C124.345 187.757 122.318 192.415 121.779 193.098C121.24 193.503 120.539 193.822 119.676 194.057C117.498 193.588 116.409 192.618 116.409 191.147V190.603C116.409 190.198 118.081 186.009 121.423 178.036L110.749 152.294V151.911C111.159 149.864 112.237 148.841 113.984 148.841C115.73 148.841 117.121 150.525 118.156 153.893C121.649 162.037 123.903 167.334 124.916 169.786Z" fill="#FBFBFB"/>
<path d="M172.593 135.282H173.175C175.224 135.709 176.248 136.679 176.248 138.192V162.111L176.378 166.204C176.378 169.573 174.997 173.08 172.237 176.725C168.334 180.903 163.935 182.993 159.04 182.993H158.07C153.283 182.993 148.841 180.786 144.743 176.373C142.221 172.856 140.959 169.221 140.959 165.469C140.959 159.798 143.504 155.034 148.593 151.175C151.827 149.043 155.191 147.977 158.684 147.977C163.17 147.977 166.836 149.235 169.682 151.751V140.271L169.553 138.192C170.178 136.252 171.191 135.282 172.593 135.282ZM147.655 165.117V165.725C147.655 170.244 150.059 173.613 154.868 175.83C156.118 176.192 157.261 176.373 158.296 176.373H159.04C163.482 176.373 166.846 174.007 169.132 169.274C169.499 167.846 169.682 166.748 169.682 165.981V165.245C169.682 160.747 167.245 157.379 162.372 155.14C160.884 154.778 159.73 154.597 158.911 154.597H158.426C153.984 154.597 150.62 156.931 148.334 161.6C147.881 162.9 147.655 164.073 147.655 165.117Z" fill="#FBFBFB"/>
<path d="M196.916 148.297C203.666 148.297 208.906 151.463 212.636 157.794C213.93 160.289 214.577 162.985 214.577 165.885V166.588C214.189 168.763 213.1 169.85 211.31 169.85H187.083C187.708 171.96 189.466 173.783 192.355 175.318C194.059 175.958 195.655 176.277 197.143 176.277C198.868 176.277 200.938 175.68 203.353 174.487H204.388C206.415 174.87 207.428 175.915 207.428 177.62V177.972C207.428 180.488 204.226 182.161 197.822 182.993H196.916C190.62 182.993 185.574 180.083 181.778 174.263C180.247 171.513 179.482 168.635 179.482 165.629C179.482 159.276 182.512 154.224 188.571 150.472C191.525 149.022 194.307 148.297 196.916 148.297ZM186.501 163.263H207.687C207.687 162.474 206.792 160.886 205.003 158.498C202.587 156.238 200.215 155.108 197.887 155.108H196.56C193.024 155.108 190.113 156.835 187.827 160.289C187.029 161.653 186.587 162.644 186.501 163.263Z" fill="#FBFBFB"/>
<path d="M220.075 148.169H220.301C222.026 148.169 223.428 149.683 224.506 152.71L234.016 172.024C241.024 157.315 244.819 149.651 245.401 149.033C246.178 148.457 246.954 148.169 247.73 148.169C249.93 148.574 251.03 149.651 251.03 151.399V151.527C251.03 152.081 249.218 156.068 245.596 163.486L236.506 181.937C235.558 182.641 234.727 182.993 234.016 182.993H233.919C232.086 182.993 230.566 181.266 229.358 177.812C221.53 162.015 217.379 153.424 216.905 152.038V151.207C217.293 149.182 218.35 148.169 220.075 148.169Z" fill="#FBFBFB"/>
<path d="M18.4046 148.297C25.1541 148.297 30.3941 151.463 34.1246 157.794C35.4184 160.289 36.0653 162.985 36.0653 165.885V166.588C35.6772 168.763 34.5882 169.85 32.7984 169.85H8.57156C9.19691 171.96 10.9544 173.783 13.8439 175.318C15.5474 175.958 17.1431 176.277 18.631 176.277C20.3561 176.277 22.4263 175.68 24.8414 174.487H25.8765C27.9035 174.87 28.917 175.915 28.917 177.62V177.972C28.917 180.488 25.7147 182.161 19.3103 182.993H18.4046C12.108 182.993 7.0621 180.083 3.26688 174.263C1.73585 171.513 0.970337 168.635 0.970337 165.629C0.970337 159.276 4.00004 154.224 10.0595 150.472C13.0137 149.022 15.7954 148.297 18.4046 148.297ZM7.98934 163.263H29.1757C29.1757 162.474 28.2808 160.886 26.491 158.498C24.0759 156.238 21.7039 155.108 19.375 155.108H18.0488C14.5124 155.108 11.6013 156.835 9.31551 160.289C8.51765 161.653 8.07559 162.644 7.98934 163.263Z" stroke="#FBFBFB" stroke-width="0.493275" mask="url(#path-5-outside-3_5887_20567)"/>
<path d="M45.0566 165.437V165.789C45.0566 170.159 47.2777 173.442 51.7198 175.638C53.0999 176.149 54.3398 176.405 55.4396 176.405H56.3776C60.0434 176.405 63.0731 174.583 65.4667 170.937C66.3293 169.232 66.7605 167.601 66.7605 166.045V165.565C66.7605 161.365 64.6581 158.146 60.4531 155.908C59.0084 155.268 57.4989 154.948 55.9248 154.948H55.7954C51.3317 154.948 47.9677 157.251 45.7035 161.856C45.2723 163.263 45.0566 164.456 45.0566 165.437ZM66.7929 179.347C64.1621 181.777 60.6903 182.993 56.3776 182.993H55.4396C49.488 182.993 44.5283 180.051 40.5606 174.167C39.1158 171.31 38.3934 168.443 38.3934 165.565C38.3934 159.127 41.5849 154.021 47.9677 150.248C50.6848 148.99 53.3371 148.361 55.9248 148.361C62.5448 148.361 67.7848 151.559 71.6447 157.954C72.8307 160.576 73.4237 163.273 73.4237 166.045V179.891C73.4237 181.596 72.3671 182.63 70.2539 182.993H70.0275C68.5611 182.993 67.4721 182.14 66.7605 180.434V180.083L66.7929 179.347Z" stroke="#FBFBFB" stroke-width="0.493275" mask="url(#path-5-outside-3_5887_20567)"/>
<path d="M100.852 171.577C100.83 171.15 100.388 170.894 99.5259 170.809C88.6146 168.4 82.7924 166.865 82.0592 166.204C79.8382 164.542 78.7276 162.484 78.7276 160.033C78.7276 156.707 81.0781 153.552 85.779 150.567C88.3666 149.224 90.9219 148.553 93.4449 148.553C99.3534 148.553 104.022 151.25 107.451 156.643L107.58 157.826V158.018C107.58 159.83 106.48 160.896 104.281 161.216C102.814 161.216 101.456 160.193 100.205 158.146C98.2428 156.249 95.9894 155.3 93.4449 155.3C90.1241 155.3 87.5256 156.835 85.6496 159.905L85.5849 160.225C85.5849 160.651 86.5121 160.939 88.3666 161.088C97.639 163.305 102.76 164.595 103.731 164.957C106.383 166.684 107.709 168.869 107.709 171.513V171.609C107.709 175.254 105.1 178.548 99.8817 181.49C97.6175 182.492 95.2347 182.993 92.7333 182.993C87.558 182.993 83.1913 180.605 79.6333 175.83C79.1805 175.19 78.9541 174.572 78.9541 173.975V173.271C78.9541 171.545 80.1401 170.553 82.5121 170.298C83.655 170.298 85.0027 171.395 86.5553 173.591C88.4529 175.339 90.674 176.213 93.2185 176.213C96.2374 176.213 98.7388 174.817 100.723 172.024L100.852 171.577Z" stroke="#FBFBFB" stroke-width="0.493275" mask="url(#path-5-outside-3_5887_20567)"/>
<path d="M124.916 169.786C130.286 156.846 133.186 150.13 133.617 149.64C134.372 149.022 135.159 148.713 135.979 148.713C138.049 149.097 139.084 150.12 139.084 151.783V151.974C138.998 152.635 135.256 161.685 127.86 179.123C124.345 187.757 122.318 192.415 121.779 193.098C121.24 193.503 120.539 193.822 119.676 194.057C117.498 193.588 116.409 192.618 116.409 191.147V190.603C116.409 190.198 118.081 186.009 121.423 178.036L110.749 152.294V151.911C111.159 149.864 112.237 148.841 113.984 148.841C115.73 148.841 117.121 150.525 118.156 153.893C121.649 162.037 123.903 167.334 124.916 169.786Z" stroke="#FBFBFB" stroke-width="0.493275" mask="url(#path-5-outside-3_5887_20567)"/>
<path d="M172.593 135.282H173.175C175.224 135.709 176.248 136.679 176.248 138.192V162.111L176.378 166.204C176.378 169.573 174.997 173.08 172.237 176.725C168.334 180.903 163.935 182.993 159.04 182.993H158.07C153.283 182.993 148.841 180.786 144.743 176.373C142.221 172.856 140.959 169.221 140.959 165.469C140.959 159.798 143.504 155.034 148.593 151.175C151.827 149.043 155.191 147.977 158.684 147.977C163.17 147.977 166.836 149.235 169.682 151.751V140.271L169.553 138.192C170.178 136.252 171.191 135.282 172.593 135.282ZM147.655 165.117V165.725C147.655 170.244 150.059 173.613 154.868 175.83C156.118 176.192 157.261 176.373 158.296 176.373H159.04C163.482 176.373 166.846 174.007 169.132 169.274C169.499 167.846 169.682 166.748 169.682 165.981V165.245C169.682 160.747 167.245 157.379 162.372 155.14C160.884 154.778 159.73 154.597 158.911 154.597H158.426C153.984 154.597 150.62 156.931 148.334 161.6C147.881 162.9 147.655 164.073 147.655 165.117Z" stroke="#FBFBFB" stroke-width="0.493275" mask="url(#path-5-outside-3_5887_20567)"/>
<path d="M196.916 148.297C203.666 148.297 208.906 151.463 212.636 157.794C213.93 160.289 214.577 162.985 214.577 165.885V166.588C214.189 168.763 213.1 169.85 211.31 169.85H187.083C187.708 171.96 189.466 173.783 192.355 175.318C194.059 175.958 195.655 176.277 197.143 176.277C198.868 176.277 200.938 175.68 203.353 174.487H204.388C206.415 174.87 207.428 175.915 207.428 177.62V177.972C207.428 180.488 204.226 182.161 197.822 182.993H196.916C190.62 182.993 185.574 180.083 181.778 174.263C180.247 171.513 179.482 168.635 179.482 165.629C179.482 159.276 182.512 154.224 188.571 150.472C191.525 149.022 194.307 148.297 196.916 148.297ZM186.501 163.263H207.687C207.687 162.474 206.792 160.886 205.003 158.498C202.587 156.238 200.215 155.108 197.887 155.108H196.56C193.024 155.108 190.113 156.835 187.827 160.289C187.029 161.653 186.587 162.644 186.501 163.263Z" stroke="#FBFBFB" stroke-width="0.493275" mask="url(#path-5-outside-3_5887_20567)"/>
<path d="M220.075 148.169H220.301C222.026 148.169 223.428 149.683 224.506 152.71L234.016 172.024C241.024 157.315 244.819 149.651 245.401 149.033C246.178 148.457 246.954 148.169 247.73 148.169C249.93 148.574 251.03 149.651 251.03 151.399V151.527C251.03 152.081 249.218 156.068 245.596 163.486L236.506 181.937C235.558 182.641 234.727 182.993 234.016 182.993H233.919C232.086 182.993 230.566 181.266 229.358 177.812C221.53 162.015 217.379 153.424 216.905 152.038V151.207C217.293 149.182 218.35 148.169 220.075 148.169Z" stroke="#FBFBFB" stroke-width="0.493275" mask="url(#path-5-outside-3_5887_20567)"/>
<defs>
<linearGradient id="paint0_linear_5887_20567" x1="82.565" y1="108.211" x2="82.565" y2="117.603" gradientUnits="userSpaceOnUse">
<stop offset="0.442708" stop-color="#3BBAA8"/>
<stop offset="1" stop-color="#B7D3DA"/>
</linearGradient>
<linearGradient id="paint1_linear_5887_20567" x1="82.565" y1="108.211" x2="82.565" y2="117.603" gradientUnits="userSpaceOnUse">
<stop stop-color="#3BBAA8"/>
<stop offset="1" stop-color="#99CDCE"/>
</linearGradient>
</defs>
</svg>
