<svg width="108" height="108" viewBox="0 0 108 108" fill="none" xmlns="http://www.w3.org/2000/svg">
<path d="M54 108C83.8266 108 108 83.8266 108 54C108 24.1734 83.8266 0 54 0C24.1734 0 0 24.1734 0 54C0 83.8266 24.1734 108 54 108Z" fill="#0052FF"/>
<path d="M54.0105 35.0156C43.527 35.0156 35.0262 43.5059 35.0262 54C35.0262 64.4941 43.527 72.9844 54.0105 72.9844C63.4078 72.9844 71.2125 66.1289 72.7102 57.1641H91.8316C90.218 76.6547 73.902 91.9688 54 91.9688C33.0328 91.9688 16.0312 74.9672 16.0312 54C16.0312 33.0328 33.0328 16.0312 54 16.0312C73.902 16.0312 90.218 31.3453 91.8316 50.8359H72.6996C71.1914 41.8711 63.4078 35.0156 54.0105 35.0156Z" fill="white"/>
</svg>

