<svg width="101" height="108" viewBox="0 0 101 108" fill="none" xmlns="http://www.w3.org/2000/svg">
<g clip-path="url(#clip0_5792_17328)">
<path fill-rule="evenodd" clip-rule="evenodd" d="M10.1266 0.0579834C4.51235 0.0579834 0 4.59851 0 10.1307V21.8734C0 27.4577 4.56482 31.9461 10.1266 31.9461H28.071V97.8099C28.071 103.394 32.6359 107.883 38.1976 107.883H50.0032C55.6174 107.883 60.1297 103.342 60.1297 97.8099V21.9778C60.1297 21.9256 60.1297 21.9256 60.1297 21.8734V10.1307C60.1297 4.54632 55.5649 0.0579834 50.0032 0.0579834H38.2501H10.1266Z" fill="#3563AE"/>
<path d="M84.3183 31.9983C93.1856 31.9983 100.374 24.8482 100.374 16.0281C100.374 7.208 93.1856 0.0579834 84.3183 0.0579834C75.451 0.0579834 68.2627 7.208 68.2627 16.0281C68.2627 24.8482 75.451 31.9983 84.3183 31.9983Z" fill="#3563AE"/>
</g>
<defs>
<clipPath id="clip0_5792_17328">
<rect width="100.216" height="108" fill="white"/>
</clipPath>
</defs>
</svg>

