<svg width="113" height="69" viewBox="0 0 113 69" fill="none" xmlns="http://www.w3.org/2000/svg">
<path d="M23.1481 13.4554C41.5733 -4.49522 71.4559 -4.49522 89.8811 13.4554L92.0967 15.6013C93.0297 16.5003 93.0297 17.9503 92.0967 18.8493L84.5168 26.2441C84.0503 26.6791 83.3215 26.6791 82.855 26.2441L79.7939 23.2572C66.937 10.7294 46.0921 10.7294 33.2353 23.2572L29.9701 26.4471C29.5036 26.8821 28.7748 26.8821 28.3083 26.4471L20.6992 19.0812C19.7663 18.1823 19.7663 16.7323 20.6992 15.8333L23.1481 13.4554ZM105.566 28.738L112.329 35.3209C113.262 36.2199 113.262 37.6698 112.329 38.5688L81.8638 68.2351C80.9309 69.1341 79.444 69.1341 78.5402 68.2351L56.9373 47.1816C56.7041 46.9496 56.3251 46.9496 56.0918 47.1816L34.4889 68.2351C33.556 69.1341 32.0691 69.1341 31.1654 68.2351L0.69969 38.5688C-0.23323 37.6698 -0.23323 36.2199 0.69969 35.3209L7.46336 28.738C8.39629 27.839 9.88313 27.839 10.7869 28.738L32.3898 49.7915C32.6231 50.0235 33.0021 50.0235 33.2353 49.7915L54.8382 28.738C55.7712 27.839 57.258 27.839 58.1618 28.738L79.7647 49.7915C79.9979 50.0235 80.3769 50.0235 80.6102 49.7915L102.213 28.738C103.146 27.839 104.633 27.839 105.566 28.738Z" fill="#3B99FC"/>
</svg>

