<svg width="76" height="77" viewBox="0 0 76 77" fill="none" xmlns="http://www.w3.org/2000/svg">
<path fill-rule="evenodd" clip-rule="evenodd" d="M53.9311 8.08227C54.1523 8.30288 54.3278 8.56497 54.4475 8.85351C54.5672 9.14205 54.6288 9.45137 54.6288 9.76377C54.6288 10.0762 54.5672 10.3855 54.4475 10.674C54.3278 10.9626 54.1523 11.2247 53.9311 11.4453L27.1079 38.2638L53.9311 65.0823C54.3771 65.5282 54.6276 66.1331 54.6276 66.7638C54.6276 67.3945 54.3771 67.9993 53.9311 68.4453C53.4851 68.8912 52.8803 69.1418 52.2496 69.1418C51.6189 69.1418 51.0141 68.8912 50.5681 68.4453L22.0681 39.9453C21.8469 39.7247 21.6715 39.4626 21.5517 39.174C21.432 38.8855 21.3704 38.5762 21.3704 38.2638C21.3704 37.9514 21.432 37.642 21.5517 37.3535C21.6715 37.065 21.8469 36.8029 22.0681 36.5823L50.5681 8.08227C50.7887 7.86109 51.0508 7.68561 51.3393 7.56588C51.6279 7.44615 51.9372 7.38452 52.2496 7.38452C52.562 7.38452 52.8713 7.44615 53.1599 7.56588C53.4484 7.68561 53.7105 7.86109 53.9311 8.08227Z" fill="#DDDDDD"/>
</svg>
