<svg width="17" height="17" viewBox="0 0 17 17" fill="none" xmlns="http://www.w3.org/2000/svg">
<path fill-rule="evenodd" clip-rule="evenodd" d="M16.9178 1.79335C16.9178 2.78437 16.1153 3.58662 15.1243 3.58662C14.135 3.58662 13.3322 2.78437 13.3322 1.79335C13.3322 0.804278 14.135 0.000976562 15.1243 0.000976562C16.1153 0.000976562 16.9178 0.804278 16.9178 1.79335Z" fill="#F54208"/>
<path fill-rule="evenodd" clip-rule="evenodd" d="M8.21653 0.000976562C8.21653 0.000976562 6.34084 3.64079 6.16725 3.99201C5.94173 4.445 5.96211 4.64425 6.10566 4.93297C6.20725 5.13609 8.64085 9.87091 9.38699 11.3231H5.37854L7.07581 14.6251H11.0829C11.5501 15.5337 11.9534 16.3201 11.9823 16.3748C12.1848 16.749 12.3157 16.9047 12.9495 16.9047H16.9038L8.21653 0.000976562Z" fill="#DDDDDD"/>
<path fill-rule="evenodd" clip-rule="evenodd" d="M0 16.9043H8.96408L4.47511 8.19629L0 16.9043Z" fill="#1037AA"/>
</svg>
