<svg width="28" height="28" viewBox="0 0 28 28" fill="none" xmlns="http://www.w3.org/2000/svg">
<path d="M24.0892 3.11987L15.3447 9.61454L16.9618 5.78277L24.0892 3.11987Z" fill="#E2761B" stroke="#E2761B" stroke-width="0.0847458" stroke-linecap="round" stroke-linejoin="round"/>
<path d="M3.90186 3.11987L12.5761 9.67606L11.0381 5.78277L3.90186 3.11987Z" fill="#E4761B" stroke="#E4761B" stroke-width="0.0847458" stroke-linecap="round" stroke-linejoin="round"/>
<path d="M20.9427 18.1744L18.6138 21.7425L23.5968 23.1135L25.0293 18.2535L20.9427 18.1744Z" fill="#E4761B" stroke="#E4761B" stroke-width="0.0847458" stroke-linecap="round" stroke-linejoin="round"/>
<path d="M2.97949 18.2535L4.40322 23.1135L9.38627 21.7425L7.05733 18.1744L2.97949 18.2535Z" fill="#E4761B" stroke="#E4761B" stroke-width="0.0847458" stroke-linecap="round" stroke-linejoin="round"/>
<path d="M9.10488 12.1457L7.71631 14.2461L12.6642 14.4658L12.4884 9.1488L9.10488 12.1457Z" fill="#E4761B" stroke="#E4761B" stroke-width="0.0847458" stroke-linecap="round" stroke-linejoin="round"/>
<path d="M18.8865 12.1457L15.459 9.08728L15.3447 14.4658L20.2838 14.2461L18.8865 12.1457Z" fill="#E4761B" stroke="#E4761B" stroke-width="0.0847458" stroke-linecap="round" stroke-linejoin="round"/>
<path d="M9.38623 21.7426L12.3567 20.2925L9.7905 18.2887L9.38623 21.7426Z" fill="#E4761B" stroke="#E4761B" stroke-width="0.0847458" stroke-linecap="round" stroke-linejoin="round"/>
<path d="M15.6348 20.2925L18.6141 21.7426L18.201 18.2887L15.6348 20.2925Z" fill="#E4761B" stroke="#E4761B" stroke-width="0.0847458" stroke-linecap="round" stroke-linejoin="round"/>
<path d="M18.6141 21.7426L15.6348 20.2925L15.8721 22.2347L15.8457 23.0521L18.6141 21.7426Z" fill="#D7C1B3" stroke="#D7C1B3" stroke-width="0.0847458" stroke-linecap="round" stroke-linejoin="round"/>
<path d="M9.38623 21.7426L12.1546 23.0521L12.137 22.2347L12.3567 20.2925L9.38623 21.7426Z" fill="#D7C1B3" stroke="#D7C1B3" stroke-width="0.0847458" stroke-linecap="round" stroke-linejoin="round"/>
<path d="M12.1981 17.0056L9.71973 16.2762L11.4686 15.4764L12.1981 17.0056Z" fill="#233447" stroke="#233447" stroke-width="0.0847458" stroke-linecap="round" stroke-linejoin="round"/>
<path d="M15.793 17.0056L16.5224 15.4764L18.2801 16.2762L15.793 17.0056Z" fill="#233447" stroke="#233447" stroke-width="0.0847458" stroke-linecap="round" stroke-linejoin="round"/>
<path d="M9.38607 21.7427L9.80791 18.1746L7.05713 18.2537L9.38607 21.7427Z" fill="#CD6116" stroke="#CD6116" stroke-width="0.0847458" stroke-linecap="round" stroke-linejoin="round"/>
<path d="M18.1924 18.1746L18.6142 21.7427L20.9432 18.2537L18.1924 18.1746Z" fill="#CD6116" stroke="#CD6116" stroke-width="0.0847458" stroke-linecap="round" stroke-linejoin="round"/>
<path d="M20.2838 14.2461L15.3447 14.4658L15.8017 17.0057L16.5312 15.4765L18.2889 16.2762L20.2838 14.2461Z" fill="#CD6116" stroke="#CD6116" stroke-width="0.0847458" stroke-linecap="round" stroke-linejoin="round"/>
<path d="M9.72007 16.2762L11.4778 15.4765L12.1984 17.0057L12.6642 14.4658L7.71631 14.2461L9.72007 16.2762Z" fill="#CD6116" stroke="#CD6116" stroke-width="0.0847458" stroke-linecap="round" stroke-linejoin="round"/>
<path d="M7.71631 14.2461L9.79038 18.2888L9.72007 16.2762L7.71631 14.2461Z" fill="#E4751F" stroke="#E4751F" stroke-width="0.0847458" stroke-linecap="round" stroke-linejoin="round"/>
<path d="M18.2891 16.2762L18.2012 18.2888L20.284 14.2461L18.2891 16.2762Z" fill="#E4751F" stroke="#E4751F" stroke-width="0.0847458" stroke-linecap="round" stroke-linejoin="round"/>
<path d="M12.6645 14.4658L12.1987 17.0057L12.7788 20.0025L12.9106 16.0565L12.6645 14.4658Z" fill="#E4751F" stroke="#E4751F" stroke-width="0.0847458" stroke-linecap="round" stroke-linejoin="round"/>
<path d="M15.3447 14.4658L15.1074 16.0477L15.2129 20.0025L15.8017 17.0057L15.3447 14.4658Z" fill="#E4751F" stroke="#E4751F" stroke-width="0.0847458" stroke-linecap="round" stroke-linejoin="round"/>
<path d="M15.8017 17.0057L15.2129 20.0025L15.6347 20.2926L18.201 18.2888L18.2888 16.2762L15.8017 17.0057Z" fill="#F6851B" stroke="#F6851B" stroke-width="0.0847458" stroke-linecap="round" stroke-linejoin="round"/>
<path d="M9.71973 16.2762L9.79003 18.2888L12.3563 20.2926L12.7781 20.0025L12.1981 17.0057L9.71973 16.2762Z" fill="#F6851B" stroke="#F6851B" stroke-width="0.0847458" stroke-linecap="round" stroke-linejoin="round"/>
<path d="M15.8457 23.0522L15.8721 22.2348L15.6524 22.0415H12.3391L12.137 22.2348L12.1546 23.0522L9.38623 21.7427L10.353 22.5336L12.3128 23.8958H15.6788L17.6474 22.5336L18.6141 21.7427L15.8457 23.0522Z" fill="#C0AD9E" stroke="#C0AD9E" stroke-width="0.0847458" stroke-linecap="round" stroke-linejoin="round"/>
<path d="M15.6345 20.2926L15.2127 20.0026H12.7783L12.3564 20.2926L12.1367 22.2348L12.3389 22.0415H15.6521L15.8718 22.2348L15.6345 20.2926Z" fill="#161616" stroke="#161616" stroke-width="0.0847458" stroke-linecap="round" stroke-linejoin="round"/>
<path d="M24.4584 10.0364L25.2054 6.4507L24.0893 3.11987L15.6348 9.39483L18.8865 12.1456L23.4829 13.4902L24.5023 12.3038L24.0629 11.9874L24.766 11.3459L24.2211 10.924L24.9242 10.3879L24.4584 10.0364Z" fill="#763D16" stroke="#763D16" stroke-width="0.0847458" stroke-linecap="round" stroke-linejoin="round"/>
<path d="M2.79492 6.4507L3.54194 10.0364L3.06736 10.3879L3.77044 10.924L3.23434 11.3459L3.93742 11.9874L3.498 12.3038L4.50867 13.4902L9.10503 12.1456L12.3568 9.39483L3.90227 3.11987L2.79492 6.4507Z" fill="#763D16" stroke="#763D16" stroke-width="0.0847458" stroke-linecap="round" stroke-linejoin="round"/>
<path d="M23.483 13.4903L18.8867 12.1456L20.284 14.2461L18.2012 18.2888L20.9432 18.2536H25.0298L23.483 13.4903Z" fill="#F6851B" stroke="#F6851B" stroke-width="0.0847458" stroke-linecap="round" stroke-linejoin="round"/>
<path d="M9.10504 12.1456L4.50868 13.4903L2.97949 18.2536H7.05733L9.79054 18.2888L7.71647 14.2461L9.10504 12.1456Z" fill="#F6851B" stroke="#F6851B" stroke-width="0.0847458" stroke-linecap="round" stroke-linejoin="round"/>
<path d="M15.3449 14.4658L15.6349 9.39489L16.9708 5.78284H11.0386L12.3568 9.39489L12.6644 14.4658L12.7699 16.0653L12.7787 20.0025H15.2131L15.2307 16.0653L15.3449 14.4658Z" fill="#F6851B" stroke="#F6851B" stroke-width="0.0847458" stroke-linecap="round" stroke-linejoin="round"/>
</svg>

