<svg viewBox="0 0 195 30" fill="none" xmlns="http://www.w3.org/2000/svg">
<path fill-rule="evenodd" clip-rule="evenodd" d="M30.0238 3.18103C30.0238 4.93986 28.5995 6.36366 26.8408 6.36366C25.085 6.36366 23.6602 4.93986 23.6602 3.18103C23.6602 1.42567 25.085 0 26.8408 0C28.5995 0 30.0238 1.42567 30.0238 3.18103Z" fill="#F54208"/>
<path d="M53.0631 22.3621L52.2576 19.9233H47.0528L46.2473 22.3621H42.4883L47.5279 7.81183H51.8239L56.8428 22.3621H53.0631ZM47.9409 17.2364H51.3695L49.6552 12.0694L47.9409 17.2364Z" fill="#DDDDDD"/>
<path d="M71.7527 10.4367C71.3121 10.4367 70.9472 10.5538 70.658 10.788C70.3827 11.0223 70.245 11.3598 70.245 11.8008C70.245 12.2417 70.3758 12.5999 70.6374 12.8755C70.899 13.1373 71.2364 13.344 71.6494 13.4955C72.0763 13.6333 72.5444 13.7711 73.0539 13.9089C73.5771 14.0329 74.0935 14.1913 74.603 14.3843C75.1124 14.5634 75.5737 14.7907 75.9868 15.0663C76.4136 15.3419 76.7579 15.7346 77.0195 16.2444C77.2811 16.7404 77.4119 17.3398 77.4119 18.0425C77.4119 19.2688 76.9093 20.3229 75.9042 21.2047C74.9128 22.0727 73.5978 22.5068 71.9592 22.5068C70.3345 22.5068 69.0195 22.1141 68.0143 21.3287C67.0229 20.5433 66.5273 19.4272 66.5273 17.9805H70.2863C70.3827 19.1379 70.9747 19.7166 72.0625 19.7166C72.572 19.7166 72.9713 19.5857 73.2604 19.3239C73.5496 19.0483 73.6942 18.7039 73.6942 18.2905C73.6942 17.8771 73.5634 17.5396 73.3018 17.2778C73.0401 17.016 72.6959 16.8093 72.2691 16.6577C71.856 16.5062 71.3878 16.3684 70.8646 16.2444C70.3551 16.1066 69.8457 15.9412 69.3362 15.7483C68.8267 15.5554 68.3586 15.3281 67.9317 15.0663C67.5186 14.7907 67.1813 14.4049 66.9197 13.9089C66.6581 13.3991 66.5273 12.7997 66.5273 12.1108C66.5273 10.7605 67.0298 9.67884 68.035 8.8659C69.0402 8.05295 70.3207 7.64648 71.8766 7.64648C73.4463 7.64648 74.7131 8.00473 75.677 8.72122C76.6408 9.42393 77.1434 10.54 77.1847 12.0694H73.3431C73.288 11.5458 73.1159 11.1463 72.8267 10.8707C72.5513 10.5813 72.1933 10.4367 71.7527 10.4367Z" fill="#DDDDDD"/>
<path d="M99.5212 12.2968C99.5212 13.2751 99.1701 14.2189 98.4678 15.1283C98.0961 15.5968 97.5384 15.9826 96.7948 16.2857C96.0651 16.5751 95.1976 16.7197 94.1924 16.7197H92.0031V22.3621H88.4713V7.85316H94.1924C95.8723 7.85316 97.1804 8.28719 98.1167 9.15525C99.053 10.0233 99.5212 11.0705 99.5212 12.2968ZM92.0031 14.0329H94.1924C94.7295 14.0329 95.1494 13.8744 95.4523 13.5575C95.769 13.2406 95.9274 12.8273 95.9274 12.3175C95.9274 11.7939 95.769 11.3667 95.4523 11.036C95.1356 10.7053 94.7157 10.54 94.1924 10.54H92.0031V14.0329Z" fill="#DDDDDD"/>
<path d="M109.904 22.3621V7.85316H113.436V22.3621H109.904Z" fill="#DDDDDD"/>
<path d="M128.333 16.7197V22.3621H124.801V7.85316H130.522C132.202 7.85316 133.51 8.28719 134.447 9.15525C135.383 10.0233 135.851 11.0705 135.851 12.2968C135.851 13.1373 135.596 13.9571 135.087 14.7563C134.578 15.5554 133.744 16.1204 132.588 16.4511L136.14 22.3621H132.01L128.746 16.7197H128.333ZM128.333 10.54V14.0329H130.522C131.059 14.0329 131.479 13.8744 131.782 13.5575C132.099 13.2406 132.257 12.8273 132.257 12.3175C132.257 11.7939 132.099 11.3667 131.782 11.036C131.466 10.7053 131.046 10.54 130.522 10.54H128.333Z" fill="#DDDDDD"/>
<path d="M146.859 22.3621V7.85316H150.391V22.3621H146.859Z" fill="#DDDDDD"/>
<path d="M160.765 10.54V7.85316H172.208V10.54H168.242V22.3621H164.71V10.54H160.765Z" fill="#DDDDDD"/>
<path d="M189.896 22.3621H186.364V17.6911L181.345 7.85316H185.352L188.14 14.4049L190.908 7.85316H194.914L189.896 17.6911V22.3621Z" fill="#DDDDDD"/>
<path fill-rule="evenodd" clip-rule="evenodd" d="M14.5817 0C14.5817 0 11.2528 6.45979 10.9447 7.08312C10.5444 7.88706 10.5806 8.24069 10.8354 8.7531C11.0157 9.1136 15.3347 17.5167 16.6589 20.094H9.54492L12.5572 25.9542H19.6688C20.4979 27.5668 21.2137 28.9624 21.2649 29.0596C21.6244 29.7237 21.8567 30 22.9816 30H29.9995L14.5817 0Z" fill="#DDDDDD"/>
<path fill-rule="evenodd" clip-rule="evenodd" d="M0 29.9998H15.9091L7.94224 14.5453L0 29.9998Z" fill="#1037AA"/>
</svg>
