<svg viewBox="0 0 1920 3107" fill="none" xmlns="http://www.w3.org/2000/svg">
<mask id="mask0_5887_18350" style="mask-type:alpha" maskUnits="userSpaceOnUse" x="0" y="0" width="1920" height="3107">
<rect width="1920" height="3107" fill="#C4C4C4"/>
</mask>
<g mask="url(#mask0_5887_18350)">
<path fill-rule="evenodd" clip-rule="evenodd" d="M-15.7265 2917.09C-267.382 2630.4 -80.5823 2186.91 57.5858 1830.58C166.176 1550.54 381.695 1349.82 646.844 1208.37C928.618 1058.05 1236.46 945.297 1541.2 1039.1C1908.86 1152.27 2286.31 1370 2381.96 1742.47C2479.24 2121.28 2277.09 2521.16 1990.41 2788.38C1747.18 3015.1 1392.61 2952.45 1061.04 2973.72C683.571 2997.94 233.396 3200.88 -15.7265 2917.09Z" fill="white" fill-opacity="0.04"/>
<path fill-rule="evenodd" clip-rule="evenodd" d="M1067.29 2327.67C679.211 2425.62 250.082 2530.82 -69.106 2306.51C-378.547 2089.04 -390.153 1670.1 -400.293 1296.31C-409.652 951.275 -553.989 355.885 -283.5 124.475C-20.2969 -100.703 436.265 198.496 782.5 217.475C1185.99 239.593 1722.93 163.742 1982.87 458.127C2284.91 800.182 2404.96 1318.45 2201.75 1733.38C2008.14 2128.73 1503.26 2217.64 1067.29 2327.67Z" fill="white" fill-opacity="0.03"/>
</g>
</svg>
