<svg viewBox="0 0 187 144" fill="none" xmlns="http://www.w3.org/2000/svg">
<mask id="path-1-inside-1_5887_20919" fill="white">
<path d="M125.703 59.6289C125.703 74.6461 113.529 86.8199 98.5122 86.8199C83.4951 86.8199 71.3213 74.6461 71.3213 59.6289C71.3213 44.6118 83.4951 32.438 98.5122 32.438C113.529 32.438 125.703 44.6118 125.703 59.6289ZM81.7898 59.6289C81.7898 68.8645 89.2767 76.3513 98.5122 76.3513C107.748 76.3513 115.235 68.8645 115.235 59.6289C115.235 50.3934 107.748 42.9065 98.5122 42.9065C89.2767 42.9065 81.7898 50.3934 81.7898 59.6289Z"/>
</mask>
<path d="M125.703 59.6289C125.703 74.6461 113.529 86.8199 98.5122 86.8199C83.4951 86.8199 71.3213 74.6461 71.3213 59.6289C71.3213 44.6118 83.4951 32.438 98.5122 32.438C113.529 32.438 125.703 44.6118 125.703 59.6289ZM81.7898 59.6289C81.7898 68.8645 89.2767 76.3513 98.5122 76.3513C107.748 76.3513 115.235 68.8645 115.235 59.6289C115.235 50.3934 107.748 42.9065 98.5122 42.9065C89.2767 42.9065 81.7898 50.3934 81.7898 59.6289Z" stroke="#274253" stroke-width="12.2815" stroke-linejoin="round" mask="url(#path-1-inside-1_5887_20919)"/>
<rect x="115.206" y="64.8765" width="64.8766" height="10.4947" rx="1.90818" transform="rotate(-90 115.206 64.8765)" fill="#274253"/>
<path d="M13.6586 110.044C18.667 110.044 22.5554 112.393 25.3236 117.091C26.2837 118.942 26.7638 120.943 26.7638 123.095V123.617C26.4757 125.23 25.6677 126.037 24.3395 126.037H6.36194C6.82598 127.603 8.1301 128.956 10.2743 130.095C11.5384 130.569 12.7225 130.807 13.8266 130.807C15.1067 130.807 16.6429 130.364 18.435 129.478H19.2031C20.7072 129.763 21.4593 130.538 21.4593 131.803V132.064C21.4593 133.931 19.0831 135.173 14.3307 135.79H13.6586C8.98617 135.79 5.24184 133.631 2.42559 129.312C1.28949 127.271 0.721436 125.136 0.721436 122.905C0.721436 118.191 2.96964 114.442 7.46604 111.657C9.65823 110.582 11.7224 110.044 13.6586 110.044ZM5.9299 121.149H21.6513C21.6513 120.564 20.9872 119.385 19.6591 117.613C17.867 115.937 16.1068 115.098 14.3787 115.098H13.3946C10.7703 115.098 8.61014 116.38 6.91399 118.942C6.32194 119.955 5.99391 120.69 5.9299 121.149Z" fill="#FBFBFB"/>
<path d="M33.4358 122.763V123.024C33.4358 126.267 35.0839 128.703 38.3802 130.332C39.4043 130.712 40.3244 130.902 41.1405 130.902H41.8365C44.5568 130.902 46.805 129.549 48.5811 126.844C49.2212 125.578 49.5412 124.368 49.5412 123.213V122.858C49.5412 119.741 47.9811 117.352 44.8608 115.691C43.7887 115.217 42.6686 114.98 41.5005 114.98H41.4045C38.0922 114.98 35.596 116.688 33.9158 120.105C33.5958 121.149 33.4358 122.035 33.4358 122.763ZM49.5652 133.085C47.613 134.888 45.0368 135.79 41.8365 135.79H41.1405C36.7241 135.79 33.0437 133.607 30.0995 129.241C29.0274 127.121 28.4913 124.993 28.4913 122.858C28.4913 118.08 30.8595 114.291 35.596 111.491C37.6121 110.558 39.5803 110.091 41.5005 110.091C46.4129 110.091 50.3013 112.464 53.1655 117.21C54.0456 119.156 54.4857 121.157 54.4857 123.213V133.488C54.4857 134.754 53.7016 135.521 52.1334 135.79H51.9654C50.8773 135.79 50.0693 135.157 49.5412 133.892V133.631L49.5652 133.085Z" fill="#FBFBFB"/>
<path d="M74.8389 127.319C74.8229 127.002 74.4949 126.812 73.8548 126.749C65.7581 124.962 61.4377 123.823 60.8936 123.332C59.2455 122.098 58.4214 120.572 58.4214 118.752C58.4214 116.285 60.1656 113.943 63.6539 111.729C65.5741 110.732 67.4702 110.234 69.3424 110.234C73.7268 110.234 77.1911 112.235 79.7353 116.237L79.8313 117.115V117.258C79.8313 118.602 79.0153 119.393 77.3831 119.63C76.295 119.63 75.2869 118.871 74.3588 117.352C72.9027 115.945 71.2306 115.241 69.3424 115.241C66.8782 115.241 64.95 116.38 63.5579 118.658L63.5099 118.895C63.5099 119.211 64.1979 119.425 65.5741 119.536C72.4547 121.181 76.255 122.138 76.9751 122.407C78.9433 123.688 79.9273 125.31 79.9273 127.271V127.342C79.9273 130.047 77.9912 132.492 74.1188 134.675C72.4387 135.418 70.6705 135.79 68.8144 135.79C64.974 135.79 61.7337 134.018 59.0935 130.475C58.7575 130 58.5894 129.541 58.5894 129.098V128.576C58.5894 127.295 59.4695 126.559 61.2297 126.369C62.0778 126.369 63.0778 127.184 64.2299 128.814C65.6381 130.111 67.2862 130.759 69.1744 130.759C71.4146 130.759 73.2708 129.723 74.7429 127.651L74.8389 127.319Z" fill="#FBFBFB"/>
<path d="M92.6959 125.99C96.6803 116.387 98.8325 111.404 99.1525 111.041C99.7125 110.582 100.297 110.352 100.905 110.352C102.441 110.637 103.209 111.396 103.209 112.63V112.773C103.145 113.263 100.369 119.978 94.8801 132.919C92.2719 139.325 90.7677 142.782 90.3677 143.288C89.9677 143.589 89.4476 143.826 88.8076 144C87.1914 143.652 86.3833 142.932 86.3833 141.841V141.437C86.3833 141.137 87.6235 138.028 90.1037 132.112L82.183 113.01V112.725C82.487 111.207 83.2871 110.447 84.5832 110.447C85.8793 110.447 86.9114 111.697 87.6795 114.196C90.2717 120.239 91.9438 124.171 92.6959 125.99Z" fill="#FBFBFB"/>
<path d="M128.074 100.386H128.507C130.027 100.703 130.787 101.422 130.787 102.546V120.295L130.883 123.332C130.883 125.832 129.859 128.434 127.81 131.139C124.914 134.24 121.65 135.79 118.018 135.79H117.298C113.745 135.79 110.449 134.153 107.409 130.878C105.536 128.268 104.6 125.571 104.6 122.786C104.6 118.578 106.489 115.043 110.265 112.18C112.665 110.598 115.161 109.807 117.754 109.807C121.082 109.807 123.802 110.74 125.914 112.607V104.088L125.818 102.546C126.282 101.106 127.034 100.386 128.074 100.386ZM109.569 122.525V122.976C109.569 126.33 111.353 128.829 114.921 130.475C115.849 130.743 116.697 130.878 117.466 130.878H118.018C121.314 130.878 123.81 129.122 125.506 125.61C125.778 124.55 125.914 123.736 125.914 123.166V122.62C125.914 119.282 124.106 116.783 120.49 115.122C119.386 114.853 118.53 114.719 117.922 114.719H117.562C114.265 114.719 111.769 116.451 110.073 119.915C109.737 120.88 109.569 121.75 109.569 122.525Z" fill="#FBFBFB"/>
<path d="M146.124 110.044C151.132 110.044 155.02 112.393 157.789 117.091C158.749 118.942 159.229 120.943 159.229 123.095V123.617C158.941 125.23 158.133 126.037 156.804 126.037H138.827C139.291 127.603 140.595 128.956 142.739 130.095C144.003 130.569 145.187 130.807 146.292 130.807C147.572 130.807 149.108 130.364 150.9 129.478H151.668C153.172 129.763 153.924 130.538 153.924 131.803V132.064C153.924 133.931 151.548 135.173 146.796 135.79H146.124C141.451 135.79 137.707 133.631 134.891 129.312C133.754 127.271 133.186 125.136 133.186 122.905C133.186 118.191 135.435 114.442 139.931 111.657C142.123 110.582 144.187 110.044 146.124 110.044ZM138.395 121.149H154.116C154.116 120.564 153.452 119.385 152.124 117.613C150.332 115.937 148.572 115.098 146.844 115.098H145.859C143.235 115.098 141.075 116.38 139.379 118.942C138.787 119.955 138.459 120.69 138.395 121.149Z" fill="#FBFBFB"/>
<path d="M163.308 109.949H163.476C164.757 109.949 165.797 111.072 166.597 113.319L173.653 127.651C178.854 116.735 181.67 111.048 182.102 110.59C182.678 110.163 183.254 109.949 183.83 109.949C185.462 110.25 186.279 111.048 186.279 112.346V112.441C186.279 112.852 184.934 115.81 182.246 121.315L175.502 135.007C174.797 135.529 174.181 135.79 173.653 135.79H173.581C172.221 135.79 171.093 134.508 170.197 131.946C164.389 120.224 161.308 113.848 160.956 112.82V112.203C161.244 110.7 162.028 109.949 163.308 109.949Z" fill="#FBFBFB"/>
<g filter="url(#filter0_d_5887_20919)">
<mask id="path-4-outside-2_5887_20919" maskUnits="userSpaceOnUse" x="59.0906" y="30.9082" width="68" height="57" fill="black">
<rect fill="white" x="59.0906" y="30.9082" width="68" height="57"/>
<path fill-rule="evenodd" clip-rule="evenodd" d="M126.132 59.2796C126.084 54.9777 125.033 50.7147 123.024 46.8421C119.993 40.9986 114.978 36.4268 108.88 33.9471C102.782 31.4674 96.0003 31.2422 89.7512 33.3119C83.5021 35.3816 78.1953 39.6107 74.783 45.2402C73.088 48.0365 71.9157 51.0875 71.2944 54.2465H65.2472C62.3993 54.2465 60.0906 56.5552 60.0906 59.4031V59.7733C60.0906 62.6212 62.3993 64.9299 65.2472 64.9299H71.2946C72.5024 71.0714 75.7592 76.6325 80.5456 80.6937C85.5651 84.9527 91.9382 87.2834 98.5211 87.2674C103.315 87.2557 107.992 86.0001 112.11 83.6642C114.67 82.2123 114.912 78.7948 112.997 76.56C111.082 74.3252 107.727 74.1628 105.011 75.2964C102.962 76.1515 100.75 76.6043 98.4952 76.6098C94.4469 76.6196 90.5277 75.1864 87.4409 72.5672C85.0422 70.532 83.2682 67.8842 82.2917 64.9299H120.977C121.672 64.9299 122.336 64.7922 122.941 64.5425C124.695 64.0054 126.047 62.5419 126.117 60.5563C126.124 60.3364 126.129 60.1166 126.132 59.8967C126.133 59.8557 126.133 59.8146 126.133 59.7733V59.7108C126.134 59.6291 126.134 59.5475 126.133 59.4658V59.4031C126.133 59.3618 126.133 59.3207 126.132 59.2796ZM82.2915 54.2465H114.616C114.334 53.3923 113.983 52.5571 113.564 51.7496C111.7 48.1561 108.616 45.3446 104.866 43.8197C101.116 42.2947 96.945 42.1562 93.102 43.429C89.259 44.7018 85.9955 47.3026 83.8971 50.7645C83.2279 51.8686 82.6911 53.0372 82.2915 54.2465Z"/>
</mask>
<path fill-rule="evenodd" clip-rule="evenodd" d="M126.132 59.2796C126.084 54.9777 125.033 50.7147 123.024 46.8421C119.993 40.9986 114.978 36.4268 108.88 33.9471C102.782 31.4674 96.0003 31.2422 89.7512 33.3119C83.5021 35.3816 78.1953 39.6107 74.783 45.2402C73.088 48.0365 71.9157 51.0875 71.2944 54.2465H65.2472C62.3993 54.2465 60.0906 56.5552 60.0906 59.4031V59.7733C60.0906 62.6212 62.3993 64.9299 65.2472 64.9299H71.2946C72.5024 71.0714 75.7592 76.6325 80.5456 80.6937C85.5651 84.9527 91.9382 87.2834 98.5211 87.2674C103.315 87.2557 107.992 86.0001 112.11 83.6642C114.67 82.2123 114.912 78.7948 112.997 76.56C111.082 74.3252 107.727 74.1628 105.011 75.2964C102.962 76.1515 100.75 76.6043 98.4952 76.6098C94.4469 76.6196 90.5277 75.1864 87.4409 72.5672C85.0422 70.532 83.2682 67.8842 82.2917 64.9299H120.977C121.672 64.9299 122.336 64.7922 122.941 64.5425C124.695 64.0054 126.047 62.5419 126.117 60.5563C126.124 60.3364 126.129 60.1166 126.132 59.8967C126.133 59.8557 126.133 59.8146 126.133 59.7733V59.7108C126.134 59.6291 126.134 59.5475 126.133 59.4658V59.4031C126.133 59.3618 126.133 59.3207 126.132 59.2796ZM82.2915 54.2465H114.616C114.334 53.3923 113.983 52.5571 113.564 51.7496C111.7 48.1561 108.616 45.3446 104.866 43.8197C101.116 42.2947 96.945 42.1562 93.102 43.429C89.259 44.7018 85.9955 47.3026 83.8971 50.7645C83.2279 51.8686 82.6911 53.0372 82.2915 54.2465Z" fill="url(#paint0_linear_5887_20919)"/>
<path d="M126.132 59.2796L125.523 59.2864L125.524 59.2939L126.132 59.2796ZM123.024 46.8421L123.564 46.5619L123.564 46.5619L123.024 46.8421ZM108.88 33.9471L108.651 34.5106L108.88 33.9471ZM89.7512 33.3119L89.5599 32.7344L89.7512 33.3119ZM74.783 45.2402L75.3033 45.5555L74.783 45.2402ZM71.2944 54.2465V54.8549C71.5851 54.8549 71.8352 54.6492 71.8913 54.3639L71.2944 54.2465ZM71.2946 64.9299L71.8915 64.8125C71.8354 64.5272 71.5853 64.3215 71.2946 64.3215V64.9299ZM80.5456 80.6937L80.9392 80.2298L80.5456 80.6937ZM98.5211 87.2674L98.5225 87.8757H98.5225L98.5211 87.2674ZM112.11 83.6642L111.81 83.1351H111.81L112.11 83.6642ZM112.997 76.56L112.535 76.9559L112.997 76.56ZM105.011 75.2964L104.776 74.7349L105.011 75.2964ZM98.4952 76.6098L98.4966 77.2182H98.4966L98.4952 76.6098ZM87.4409 72.5672L87.8345 72.1034L87.4409 72.5672ZM82.2917 64.9299V64.3215C82.0964 64.3215 81.913 64.4153 81.7986 64.5736C81.6843 64.7318 81.6528 64.9354 81.7141 65.1208L82.2917 64.9299ZM122.941 64.5425L122.763 63.9608C122.745 63.9664 122.727 63.9728 122.709 63.9801L122.941 64.5425ZM126.117 60.5563L125.509 60.535V60.535L126.117 60.5563ZM126.132 59.8967L125.524 59.8825L125.523 59.89L126.132 59.8967ZM126.133 59.7108L125.525 59.7081V59.7108H126.133ZM126.133 59.4658H125.525L125.525 59.4685L126.133 59.4658ZM82.2915 54.2465L81.7138 54.0557C81.6526 54.2411 81.684 54.4446 81.7984 54.6029C81.9128 54.7612 82.0962 54.8549 82.2915 54.8549V54.2465ZM114.616 54.2465V54.8549C114.811 54.8549 114.995 54.7612 115.109 54.6029C115.224 54.4446 115.255 54.2411 115.194 54.0557L114.616 54.2465ZM113.564 51.7496L113.024 52.0298L113.024 52.0298L113.564 51.7496ZM104.866 43.8197L105.095 43.2561L104.866 43.8197ZM93.102 43.429L92.9107 42.8515L93.102 43.429ZM83.8971 50.7645L84.4173 51.0798V51.0798L83.8971 50.7645ZM126.74 59.2728C126.691 54.8764 125.617 50.5197 123.564 46.5619L122.484 47.1222C124.449 50.9097 125.477 55.0791 125.523 59.2864L126.74 59.2728ZM123.564 46.5619C120.466 40.59 115.342 35.9177 109.11 33.3835L108.651 34.5106C114.615 36.9358 119.52 41.4072 122.484 47.1222L123.564 46.5619ZM109.11 33.3835C102.878 30.8493 95.9463 30.6192 89.5599 32.7344L89.9425 33.8894C96.0542 31.8652 102.687 32.0854 108.651 34.5106L109.11 33.3835ZM89.5599 32.7344C83.1735 34.8495 77.75 39.1716 74.2628 44.9248L75.3033 45.5555C78.6405 40.0497 83.8307 35.9136 89.9425 33.8894L89.5599 32.7344ZM74.2628 44.9248C72.5305 47.7826 71.3324 50.9007 70.6975 54.1292L71.8913 54.3639C72.499 51.2743 73.6455 48.2904 75.3033 45.5555L74.2628 44.9248ZM65.2472 54.8549H71.2944V53.6382H65.2472V54.8549ZM60.6989 59.4031C60.6989 56.8912 62.7352 54.8549 65.2472 54.8549V53.6382C62.0633 53.6382 59.4822 56.2192 59.4822 59.4031H60.6989ZM60.6989 59.7733V59.4031H59.4822V59.7733H60.6989ZM65.2472 64.3215C62.7352 64.3215 60.6989 62.2852 60.6989 59.7733H59.4822C59.4822 62.9572 62.0633 65.5383 65.2472 65.5383V64.3215ZM71.2946 64.3215H65.2472V65.5383H71.2946V64.3215ZM70.6976 65.0473C71.932 71.3238 75.2604 77.0071 80.152 81.1576L80.9392 80.2298C76.258 76.2579 73.0728 70.819 71.8915 64.8125L70.6976 65.0473ZM80.152 81.1576C85.2818 85.5102 91.795 87.8921 98.5225 87.8757L98.5196 86.659C92.0814 86.6747 85.8484 84.3952 80.9392 80.2298L80.152 81.1576ZM98.5225 87.8757C103.422 87.8638 108.201 86.5806 112.41 84.1934L111.81 83.1351C107.782 85.4196 103.208 86.6476 98.5196 86.659L98.5225 87.8757ZM112.41 84.1934C115.374 82.5121 115.566 78.6236 113.459 76.1642L112.535 76.9559C114.257 78.966 113.965 81.9125 111.81 83.1351L112.41 84.1934ZM113.459 76.1642C111.307 73.6528 107.628 73.5446 104.776 74.7349L105.245 75.8578C107.825 74.7809 110.857 74.9976 112.535 76.9559L113.459 76.1642ZM104.776 74.7349C102.801 75.5595 100.668 75.9962 98.4937 76.0014L98.4966 77.2182C100.832 77.2125 103.123 76.7435 105.245 75.8578L104.776 74.7349ZM98.4937 76.0014C94.5901 76.0109 90.811 74.6289 87.8345 72.1034L87.0473 73.0311C90.2444 75.7439 94.3037 77.2284 98.4966 77.2182L98.4937 76.0014ZM87.8345 72.1034C85.5216 70.1409 83.811 67.5877 82.8694 64.739L81.7141 65.1208C82.7255 68.1807 84.5629 70.9231 87.0473 73.0311L87.8345 72.1034ZM120.977 64.3215H82.2917V65.5383H120.977V64.3215ZM122.709 63.9801C122.176 64.2 121.591 64.3215 120.977 64.3215V65.5383C121.753 65.5383 122.495 65.3844 123.173 65.1049L122.709 63.9801ZM123.119 65.1242C125.083 64.5227 126.645 62.8603 126.725 60.5776L125.509 60.535C125.449 62.2235 124.307 63.488 122.763 63.9608L123.119 65.1242ZM126.725 60.5776C126.732 60.3529 126.738 60.1282 126.74 59.9035L125.523 59.89C125.521 60.1049 125.516 60.32 125.509 60.535L126.725 60.5776ZM125.525 59.7733C125.525 59.8098 125.524 59.8462 125.524 59.8825L126.74 59.911C126.741 59.8653 126.742 59.8194 126.742 59.7733H125.525ZM125.525 59.7108V59.7733H126.742V59.7108H125.525ZM126.742 59.7134C126.742 59.63 126.742 59.5466 126.742 59.4632L125.525 59.4685C125.525 59.5484 125.525 59.6282 125.525 59.7081L126.742 59.7134ZM125.525 59.4031V59.4658H126.742V59.4031H125.525ZM125.524 59.2939C125.524 59.3302 125.525 59.3666 125.525 59.4031H126.742C126.742 59.3571 126.741 59.3111 126.74 59.2652L125.524 59.2939ZM82.2915 54.8549H114.616V53.6382H82.2915V54.8549ZM113.024 52.0298C113.428 52.8084 113.766 53.6137 114.038 54.4374L115.194 54.0557C114.901 53.1708 114.538 52.3058 114.104 51.4695L113.024 52.0298ZM104.637 44.3832C108.253 45.8536 111.226 48.5647 113.024 52.0298L114.104 51.4695C112.173 47.7475 108.979 44.8355 105.095 43.2561L104.637 44.3832ZM93.2933 44.0065C96.9989 42.7792 101.021 42.9128 104.637 44.3832L105.095 43.2561C101.211 41.6767 96.891 41.5332 92.9107 42.8515L93.2933 44.0065ZM84.4173 51.0798C86.4407 47.7416 89.5876 45.2338 93.2933 44.0065L92.9107 42.8515C88.9304 44.1698 85.5502 46.8635 83.3768 50.4492L84.4173 51.0798ZM82.8691 54.4374C83.2545 53.2713 83.772 52.1445 84.4173 51.0798L83.3768 50.4492C82.6837 51.5927 82.1278 52.8031 81.7138 54.0557L82.8691 54.4374Z" fill="url(#paint1_linear_5887_20919)" mask="url(#path-4-outside-2_5887_20919)"/>
</g>
<defs>
<filter id="filter0_d_5887_20919" x="53.3986" y="27.6496" width="79.4269" height="68.7434" filterUnits="userSpaceOnUse" color-interpolation-filters="sRGB">
<feFlood flood-opacity="0" result="BackgroundImageFix"/>
<feColorMatrix in="SourceAlpha" type="matrix" values="0 0 0 0 0 0 0 0 0 0 0 0 0 0 0 0 0 0 127 0" result="hardAlpha"/>
<feOffset dy="2.43344"/>
<feGaussianBlur stdDeviation="3.04181"/>
<feColorMatrix type="matrix" values="0 0 0 0 0.113021 0 0 0 0 0.645833 0 0 0 0 0.561068 0 0 0 0.48 0"/>
<feBlend mode="normal" in2="BackgroundImageFix" result="effect1_dropShadow_5887_20919"/>
<feBlend mode="normal" in="SourceGraphic" in2="effect1_dropShadow_5887_20919" result="shape"/>
</filter>
<linearGradient id="paint0_linear_5887_20919" x1="93.1119" y1="31.9082" x2="93.1119" y2="87.2675" gradientUnits="userSpaceOnUse">
<stop offset="0.442708" stop-color="white"/>
<stop offset="1" stop-color="#B7D3DA"/>
</linearGradient>
<linearGradient id="paint1_linear_5887_20919" x1="96.8222" y1="53.0567" x2="99.7904" y2="86.078" gradientUnits="userSpaceOnUse">
<stop stop-color="white"/>
<stop offset="1" stop-color="#BDD7DD"/>
</linearGradient>
</defs>
</svg>
