<svg width="15" height="14" viewBox="0 0 15 14" fill="none" xmlns="http://www.w3.org/2000/svg">
<path d="M13.702 6.60909C13.5123 6.44634 11.8151 5.01878 10.6338 5.01878C9.16119 5.01878 8.45025 6.30306 8.27962 6.98228L8.25381 7.08619C8.03412 7.21151 7.82798 7.35922 7.63869 7.52697C7.43677 7.70708 7.25707 7.91064 7.10341 8.13334C7.09116 8.07494 7.07912 8.01653 7.06425 7.96009C6.89056 7.3255 6.61188 6.76419 6.31153 6.21863C6.06872 5.78747 5.80053 5.37512 5.51966 4.97284L5.53344 4.94506C5.82744 4.35181 6.08709 2.91922 4.96731 1.74519C4.05534 0.788594 1.67906 0.514937 1.41131 0.487375L0.9375 0.4375L0.984094 0.926625C1.01078 1.2075 1.27087 3.69447 2.18131 4.64866C2.68816 5.18 3.32209 5.46109 4.01488 5.46109C4.58406 5.46109 5.05328 5.27253 5.26241 5.17234C5.51223 5.57657 5.74269 5.99244 5.953 6.41856C6.21331 6.95866 6.44978 7.52172 6.569 8.08413C6.59766 8.22391 6.40056 13.5625 6.40056 13.5625H7.37488C7.37488 13.5625 7.22262 9.15666 7.24953 9.05078C7.36328 8.61044 7.61091 8.19634 7.93728 7.85903C8.07753 7.71568 8.23089 7.58576 8.39534 7.47097C8.68037 8.04322 9.383 8.81803 10.6338 8.81803C11.8151 8.81803 13.5123 7.39069 13.702 7.22794L14.0625 6.91841L13.702 6.60909Z" fill="#DDDDDD"/>
</svg>
