<svg width="108" height="110" viewBox="0 0 108 110" fill="none" xmlns="http://www.w3.org/2000/svg">
<path d="M28.3893 4.89462C21.4933 7.10133 14.5513 9.30804 12.9193 9.81374L10 10.7562V31.0303C10 43.1673 10.0919 52.3159 10.2299 53.833C11.2413 64.4528 15.8386 74.521 23.5161 82.8881C25.2631 84.796 52.9849 108.955 53.7664 109.254C54.0883 109.369 78.454 88.5887 82.4537 84.773C89.3956 78.1758 94.8205 68.5215 96.7514 59.2809C97.7628 54.4077 97.8317 52.5918 97.7628 30.9844L97.6938 10.6642L82.0859 5.74512C73.5119 3.05569 66.455 0.871964 66.4091 0.894951C66.3861 0.940926 67.6733 3.49243 69.3054 6.59562L72.2706 12.2273L76.7071 13.6525C79.1436 14.434 82.8215 15.6064 84.8903 16.25L88.6371 17.4223L88.5451 36.0874C88.4762 54.0169 88.4532 54.8444 87.9935 56.9362C86.2465 64.8206 82.6376 71.5097 77.0978 77.1644C76.0404 78.2448 70.6616 83.003 65.1678 87.7153C59.674 92.4505 54.8928 96.5651 54.548 96.8869L53.9503 97.4386L43.3995 88.3589C30.504 77.2334 28.5732 75.3485 25.493 70.6132C23.1253 66.9584 21.3784 63.0277 20.321 58.959C19.2866 54.8215 19.1946 53.2814 19.1946 34.8461V17.4453L22.4817 16.4109C24.2747 15.8362 27.9525 14.6639 30.6419 13.8134C33.3084 12.9629 35.5151 12.1814 35.5151 12.1124C35.5151 12.0434 36.8024 9.51492 38.3884 6.50368C39.9745 3.46944 41.2617 0.963913 41.2617 0.917938C41.2617 0.780022 40.9859 0.871964 28.3893 4.89462Z" fill="#FF4C2F"/>
<path d="M53.3068 1.58453C53.0999 1.99829 47.3073 13.0548 40.4573 26.1342L27.9985 49.9253L28.1824 51.8562C28.5962 55.8099 30.0673 59.9934 32.4579 63.7862C33.3084 65.1654 33.5613 65.4183 33.7912 65.1654C33.9291 65.0045 38.4804 56.4075 43.9052 46.0636C49.3071 35.7426 53.7895 27.2835 53.8814 27.2835C53.9504 27.2835 58.5017 35.6506 63.9725 45.8567C69.4433 56.0627 74.0177 64.5907 74.1556 64.8206C74.3854 65.2114 74.4314 65.1884 74.7992 64.7057C77.1668 61.6025 79.1207 56.4765 79.6724 51.9481L79.9482 49.6495L66.8918 25.3067C59.72 11.9285 53.8125 0.917915 53.7665 0.894928C53.7435 0.848961 53.5366 1.14778 53.3068 1.58453Z" fill="#FF4C2F"/>
<path d="M47.4683 60.1313L41.147 72.751L44.7099 75.8542C46.6638 77.5552 49.5371 80.0147 51.0772 81.302L53.9045 83.6466L54.5252 83.1409C54.8929 82.8651 57.7203 80.4055 60.8235 77.6701L66.5012 72.705L60.2028 60.1083C56.7319 53.1894 53.8815 47.5117 53.8356 47.5117C53.8126 47.5117 50.9393 53.1894 47.4683 60.1313Z" fill="#FF4C2F"/>
</svg>

