<svg width="108" height="108" viewBox="0 0 108 108" fill="none" xmlns="http://www.w3.org/2000/svg">
<g clip-path="url(#clip0_5792_17300)">
<path fill-rule="evenodd" clip-rule="evenodd" d="M14.2763 56.5848L56.7623 99.0696C57.8291 100.136 57.8783 101.836 56.9075 102.959L56.7635 103.115L52.7159 107.162C52.4502 107.428 52.1348 107.639 51.7877 107.783C51.4405 107.927 51.0685 108.001 50.6927 108.001C50.3169 108.001 49.9449 107.927 49.5977 107.783C49.2506 107.639 48.9352 107.428 48.6695 107.162L6.1835 64.6764C5.67348 64.1661 5.37512 63.4819 5.3482 62.7609C5.32127 62.0399 5.56777 61.3354 6.0383 60.7884L6.1835 60.6312L10.2299 56.5848C10.4956 56.3191 10.811 56.1083 11.1581 55.9644C11.5053 55.8206 11.8773 55.7466 12.2531 55.7466C12.6289 55.7466 13.0009 55.8206 13.3481 55.9644C13.6952 56.1083 14.0106 56.3191 14.2763 56.5848V56.5848ZM62.6279 9.2604C64.1327 10.6992 66.0119 13.2228 67.1399 14.8464C67.6103 15.4764 67.8923 15.9264 68.2679 16.2852C69.0203 17.0076 69.7739 17.1888 71.3723 16.7388C81.2447 14.124 89.8907 17.01 98.1635 24.9348C109.728 36.0216 110.411 50.0808 95.7419 64.1388L68.0843 91.7928C66.5819 93.234 65.3147 93.3648 63.8099 91.9248L3.6479 31.6764C2.1419 30.2376 1.9151 29.1984 3.4199 27.7572L22.3235 8.82C35.5799 -3.882 50.7815 -2.094 62.6279 9.2604ZM70.1483 40.4352L57.5519 52.5072C56.0459 53.9496 56.1419 55.1232 57.6443 56.5632L62.1563 60.888C63.6623 62.328 64.8827 62.418 66.3887 60.9768V60.9792L78.9839 48.9036C82.6511 45.3912 83.4047 42.1452 80.3015 39.1716C77.2919 36.2904 73.8143 36.9192 70.1471 40.4352H70.1483ZM39.4079 25.9296L34.6127 30.5256C33.1079 31.9632 33.2027 33.1356 34.7087 34.5768L39.2183 38.904C40.7231 40.3428 41.9471 40.4352 43.4495 38.994L48.2447 34.398C50.6879 32.0556 51.0647 28.812 48.1487 26.0184C45.3287 23.3148 41.8511 23.5872 39.4079 25.9296V25.9296Z" fill="#FF0065"/>
</g>
<defs>
<clipPath id="clip0_5792_17300">
<rect width="108" height="108" fill="white"/>
</clipPath>
</defs>
</svg>

