<svg width="60" height="60" viewBox="0 0 60 60" fill="none" xmlns="http://www.w3.org/2000/svg">
<path opacity="0.15" fill-rule="evenodd" clip-rule="evenodd" d="M30 60C46.5685 60 60 46.5685 60 30C60 13.4315 46.5685 0 30 0C13.4315 0 0 13.4315 0 30C0 46.5685 13.4315 60 30 60Z" fill="#FBFBFB"/>
<g clip-path="url(#clip0_6063_18216)">
<path d="M41.2334 20.7301L32.4145 15.6441C30.9253 14.7853 29.0748 14.7853 27.5855 15.6441L18.7667 20.7301C17.2746 21.5906 16.3477 23.1953 16.3477 24.9179V35.082C16.3477 36.8047 17.2746 38.4094 18.7666 39.2698L27.5855 44.3558C29.075 45.2149 30.9254 45.2146 32.4145 44.3558L41.2333 39.2698C42.7254 38.4094 43.6523 36.8047 43.6523 35.082V24.9179C43.6523 23.1953 42.7254 21.5906 41.2334 20.7301ZM41.3086 35.082C41.3086 35.9694 40.8312 36.7959 40.0625 37.2391L31.2437 42.3251C30.4765 42.7676 29.5235 42.7676 28.7563 42.3251L19.9374 37.2391C19.1688 36.7959 18.6914 35.9694 18.6914 35.082V24.9179C18.6914 24.0307 19.1688 23.2041 19.9375 22.7609L28.7563 17.6749C29.5235 17.2324 30.4768 17.2325 31.2437 17.6749L40.0626 22.7608C40.8312 23.2041 41.3086 24.0306 41.3086 24.9179V35.082Z" fill="#53C8B7"/>
<path d="M28.8864 29.1053L24.534 25.4219C24.04 25.0038 23.3004 25.0654 22.8824 25.5595C22.4643 26.0537 22.526 26.7932 23.02 27.2114L26.3152 30.0001L23.02 32.7887C22.526 33.2068 22.4644 33.9463 22.8824 34.4405C23.3014 34.9358 24.0411 34.9952 24.534 34.5781L28.8864 30.8947C29.4401 30.4262 29.4385 29.5726 28.8864 29.1053Z" fill="#53C8B7"/>
<path d="M36.223 32.5112H30.9499C30.3026 32.5112 29.778 33.0359 29.778 33.6833C29.778 34.3306 30.3026 34.8553 30.9499 34.8553H36.223C36.8702 34.8553 37.3949 34.3306 37.3949 33.6833C37.3949 33.0359 36.8702 32.5112 36.223 32.5112Z" fill="#53C8B7"/>
</g>
<defs>
<clipPath id="clip0_6063_18216">
<rect width="30" height="30" fill="white" transform="translate(15 15)"/>
</clipPath>
</defs>
</svg>
