<svg width="60" height="60" viewBox="0 0 60 60" fill="none" xmlns="http://www.w3.org/2000/svg">
<path opacity="0.15" fill-rule="evenodd" clip-rule="evenodd" d="M30 60C46.5685 60 60 46.5685 60 30C60 13.4315 46.5685 0 30 0C13.4315 0 0 13.4315 0 30C0 46.5685 13.4315 60 30 60Z" fill="#FBFBFB"/>
<g clip-path="url(#clip0_6063_18219)">
<path d="M42.2344 18H40.0041C39.5813 18 39.2385 18.3428 39.2385 18.7656C39.2385 19.1885 39.5813 19.5312 40.0041 19.5312H41.4688V20.9959C41.4688 21.4187 41.8115 21.7615 42.2344 21.7615C42.6572 21.7615 43 21.4187 43 20.9959V18.7656C43 18.3428 42.6572 18 42.2344 18V18Z" fill="#53C8B7"/>
<path d="M42.2344 31.481C41.8115 31.481 41.4688 31.8237 41.4688 32.2466V33.7112H40.0041C39.5813 33.7112 39.2385 34.054 39.2385 34.4768C39.2385 34.8997 39.5813 35.2424 40.0041 35.2424H42.2344C42.6572 35.2424 43 34.8997 43 34.4768V32.2466C43 31.8237 42.6572 31.481 42.2344 31.481Z" fill="#53C8B7"/>
<path d="M26.5234 21.7615C26.9462 21.7615 27.289 21.4187 27.289 20.9959V19.5312H28.7536C29.1765 19.5312 29.5192 19.1885 29.5192 18.7656C29.5192 18.3428 29.1765 18 28.7536 18H26.5234C26.1005 18 25.7578 18.3428 25.7578 18.7656V20.9959C25.7578 21.4187 26.1005 21.7615 26.5234 21.7615Z" fill="#53C8B7"/>
<path d="M29.9652 29.228L18.3736 40.8196C17.8755 41.3178 17.8755 42.1251 18.3736 42.6233C18.8718 43.1215 19.6792 43.1215 20.1774 42.6233L31.769 31.0318L31.2795 29.7175L29.9652 29.228Z" fill="#53C8B7"/>
<path d="M40.6368 28.2326L38.9425 25.6083C38.8258 25.4265 38.7905 25.2035 38.8466 24.9947L39.6494 22.003C39.7562 21.6048 39.3917 21.2403 38.9934 21.3473L36.0021 22.1504C35.7935 22.2065 35.5703 22.1712 35.3887 22.0545L32.7642 20.3602C32.4169 20.1361 31.9572 20.3734 31.9391 20.7865L31.8025 23.873C31.7928 24.0931 31.6892 24.2977 31.5178 24.436L29.0779 26.3994C28.7544 26.6598 28.8376 27.1733 29.2267 27.3182L31.1559 28.0373C32.6782 28.6042 32.3934 28.3203 32.9597 29.8411L33.6788 31.7703C33.8237 32.1594 34.3372 32.2426 34.5976 31.9191L36.561 29.4792C36.6993 29.3078 36.9039 29.2042 37.124 29.1945L40.2105 29.0579C40.6236 29.0396 40.8609 28.5801 40.6368 28.2326Z" fill="#53C8B7"/>
</g>
<defs>
<clipPath id="clip0_6063_18219">
<rect width="25" height="25" fill="white" transform="translate(18 18)"/>
</clipPath>
</defs>
</svg>
