<?xml version="1.0" encoding="UTF-8" standalone="no"?>
<!-- Created with Inkscape (http://www.inkscape.org/) -->

<svg
   width="100"
   height="30"
   viewBox="0 0 100 30"
   version="1.1"
   id="svg1"
   xml:space="preserve"
   inkscape:version="1.3.2 (091e20e, 2023-11-25, custom)"
   sodipodi:docname="logo_light.svg"
   inkscape:export-filename="logo_light.svg"
   inkscape:export-xdpi="96"
   inkscape:export-ydpi="96"
   xmlns:inkscape="http://www.inkscape.org/namespaces/inkscape"
   xmlns:sodipodi="http://sodipodi.sourceforge.net/DTD/sodipodi-0.dtd"
   xmlns="http://www.w3.org/2000/svg"
   xmlns:svg="http://www.w3.org/2000/svg"><sodipodi:namedview
     id="namedview1"
     pagecolor="#ffffff"
     bordercolor="#000000"
     borderopacity="0.25"
     inkscape:showpageshadow="2"
     inkscape:pageopacity="0.0"
     inkscape:pagecheckerboard="0"
     inkscape:deskcolor="#d1d1d1"
     inkscape:document-units="px"
     showguides="true"
     inkscape:zoom="5.6568542"
     inkscape:cx="108.01056"
     inkscape:cy="63.462834"
     inkscape:window-width="3440"
     inkscape:window-height="1417"
     inkscape:window-x="-8"
     inkscape:window-y="-8"
     inkscape:window-maximized="1"
     inkscape:current-layer="layer1"><sodipodi:guide
       position="544.46278,280.3764"
       orientation="0,-1"
       id="guide1"
       inkscape:locked="false" /><sodipodi:guide
       position="11.226487,15.01679"
       orientation="0,-1"
       id="guide2"
       inkscape:locked="false" /></sodipodi:namedview><defs
     id="defs1" /><g
     inkscape:label="Layer 1"
     inkscape:groupmode="layer"
     id="layer1"><g
       transform="matrix(0.00573887,0,0,-0.00573887,-10.994498,43.991452)"
       fill="#000000"
       stroke="none"
       id="g6"
       inkscape:label="g6"
       style="fill:#2b0000"><path
         d="m 6695,7610 c -41,-9 -106,-43 -195,-103 -230,-152 -421,-345 -578,-579 l -52,-77 78,-52 c 42,-29 95,-67 118,-85 23,-19 46,-34 51,-34 6,0 29,25 52,55 74,98 224,246 325,321 54,41 102,74 106,74 15,0 21,-165 10,-255 -23,-189 -69,-326 -152,-456 l -36,-56 62,-96 c 33,-53 64,-97 68,-97 4,0 35,34 68,76 117,148 213,389 240,608 16,126 7,453 -15,551 -39,175 -73,222 -150,205 z"
         id="path1"
         style="fill:#2b0000" /><path
         d="m 3409,7600 c -26,-15 -56,-96 -80,-220 -30,-150 -33,-467 -6,-625 20,-111 85,-316 122,-382 l 23,-43 -30,-77 c -84,-220 -111,-540 -64,-763 87,-409 368,-772 727,-939 260,-121 497,-161 959,-161 255,0 326,-11 421,-61 66,-36 108,-79 140,-149 28,-59 23,-174 -10,-238 -35,-68 -103,-129 -188,-170 -66,-31 -89,-37 -166,-40 -210,-10 -344,62 -435,235 -50,94 -65,113 -116,147 -46,31 -128,35 -182,10 -82,-39 -133,-144 -120,-246 10,-71 31,-121 92,-214 116,-176 307,-304 514,-345 36,-7 126,-12 200,-12 111,1 152,5 231,26 262,69 478,247 573,475 48,113 60,174 60,292 -1,86 -6,119 -28,185 -67,196 -207,347 -409,440 -135,62 -160,66 -542,75 -192,5 -388,14 -435,20 -255,32 -472,132 -631,291 -179,179 -284,460 -264,709 16,203 67,374 163,540 73,127 117,183 226,287 190,181 380,283 645,345 125,28 372,35 516,14 114,-17 293,-59 325,-76 30,-16 35,-13 75,48 45,68 140,185 184,226 17,17 31,33 31,38 0,19 -221,93 -384,128 -339,73 -610,67 -959,-21 -112,-28 -176,-53 -314,-121 l -121,-60 -128,101 c -233,187 -489,341 -564,341 -19,0 -42,-5 -51,-10 z m 259,-517 c 44,-32 106,-82 137,-112 62,-60 63,-52 -11,-131 -42,-45 -148,-189 -157,-212 -26,-74 -83,282 -70,439 3,40 9,73 13,73 4,0 44,-26 88,-57 z"
         id="path2"
         style="fill:#2b0000" /><path
         d="m 3092,6568 c -168,-212 -335,-533 -416,-798 -37,-123 -83,-348 -97,-475 -17,-157 -6,-502 21,-678 52,-336 201,-714 399,-1008 331,-495 788,-839 1360,-1023 249,-81 448,-110 736,-109 218,0 351,16 555,64 314,73 668,239 925,432 464,350 769,788 934,1345 119,401 132,894 35,1291 -58,236 -157,479 -279,686 -79,134 -233,337 -253,333 -11,-2 -22,-28 -34,-78 -11,-41 -44,-126 -74,-189 -29,-62 -54,-117 -54,-122 0,-5 22,-44 49,-87 291,-465 385,-1094 246,-1646 -99,-388 -283,-714 -565,-996 -305,-306 -668,-504 -1095,-596 -124,-27 -143,-29 -390,-29 -232,0 -272,2 -374,23 -228,46 -449,125 -626,224 -640,358 -1039,950 -1115,1655 -17,150 -8,488 15,603 58,293 162,575 284,774 l 43,69 -51,106 c -27,58 -63,148 -78,199 -15,50 -33,92 -39,92 -7,0 -35,-28 -62,-62 z"
         id="path3"
         style="fill:#2b0000" /><path
         d="m 4314,6311 c -90,-23 -217,-109 -212,-144 5,-34 63,-67 117,-67 h 47 l -4,-34 c -15,-125 110,-229 252,-210 109,14 142,11 171,-16 l 27,-25 25,29 c 24,28 25,34 21,130 -5,118 -22,159 -100,242 -64,68 -128,95 -233,100 -44,2 -94,0 -111,-5 z m 175,-177 c 27,-34 26,-52 -1,-81 -41,-44 -108,-19 -108,40 0,65 70,91 109,41 z"
         id="path4"
         style="fill:#2b0000" /><path
         d="m 5670,6306 c -94,-25 -181,-104 -228,-204 -22,-48 -27,-71 -26,-142 0,-124 23,-154 83,-109 23,17 38,20 73,15 142,-20 155,-20 213,9 74,36 107,85 113,166 l 4,59 h 47 c 57,0 127,31 136,60 9,30 -12,51 -98,94 -124,63 -220,79 -317,52 z m 70,-183 c 34,-43 14,-95 -42,-108 -21,-5 -33,-1 -52,19 -15,14 -26,36 -26,48 0,67 78,94 120,41 z"
         id="path5"
         style="fill:#2b0000" /><path
         d="m 4933,5689 c -68,-20 -95,-102 -50,-151 12,-13 41,-35 64,-47 32,-18 42,-31 46,-57 12,-75 -14,-126 -83,-161 -92,-47 -194,-17 -240,71 -37,68 -83,84 -125,41 -48,-47 -24,-137 54,-208 66,-59 116,-80 207,-85 106,-6 171,15 234,74 l 47,44 34,-36 c 53,-56 121,-84 205,-84 39,0 93,7 122,15 160,48 266,245 157,291 -45,19 -71,6 -110,-54 -41,-64 -101,-95 -173,-89 -85,6 -152,72 -152,149 0,52 13,74 59,98 47,23 81,64 81,96 0,33 -46,82 -88,94 -45,12 -245,12 -289,-1 z"
         id="path6"
         style="fill:#2b0000" /></g><text
       xml:space="preserve"
       style="font-size:14.9436px;letter-spacing:-0.478195px;fill:#2b0000;stroke-width:0.0597742"
       x="34.971962"
       y="19.332611"
       id="text1"><tspan
         sodipodi:role="line"
         id="tspan1"
         style="font-style:normal;font-variant:normal;font-weight:bold;font-stretch:normal;font-size:14.9436px;font-family:'Nirmala UI';-inkscape-font-specification:'Nirmala UI Bold';letter-spacing:-0.478195px;fill:#2b0000;fill-opacity:1;stroke-width:0.0597742"
         x="34.971962"
         y="19.332611"
         dx="-0.024851041">Surveycat</tspan></text></g></svg>
