<svg width="28px" height="18px" viewBox="0 0 28 18" version="1.1" xmlns="http://www.w3.org/2000/svg" xmlns:xlink="http://www.w3.org/1999/xlink">
    <g stroke="none" stroke-width="1" fill="none" fill-rule="evenodd">
        <g id="walletconnect-logo-white" fill-rule="nonzero" fill="currentColor">
            <path d="M5.734264,3.38391771 C10.2993116,-1.08564448 17.7007161,-1.08564448 22.2657635,3.38391771 L22.8151744,3.92183667 C23.0434267,4.14531476 23.0434267,4.50764438 22.8151744,4.73112257 L20.9357495,6.57123619 C20.8216233,6.68297533 20.6365882,6.68297533 20.522462,6.57123619 L19.7664075,5.83099572 C16.5817162,2.71291742 11.4183114,2.71291742 8.2336201,5.83099572 L7.42394819,6.62373219 C7.3098219,6.73547124 7.12478676,6.73547124 7.01066066,6.62373219 L5.13123581,4.78361857 C4.90298343,4.56014038 4.90298343,4.19781076 5.13123581,3.97433267 L5.734264,3.38391771 Z M26.1525916,7.18946724 L27.8252834,8.82717762 C28.0535346,9.05065467 28.0535359,9.41298213 27.8252863,9.63646068 L20.2830036,17.0210999 C20.0547529,17.2445796 19.6846826,17.2445821 19.4564287,17.0211056 C19.4564278,17.0211047 19.4564266,17.0211036 19.4564257,17.0211027 L14.1033724,11.7800093 C14.0463093,11.7241397 13.9537917,11.7241397 13.8967286,11.7800093 C13.8967283,11.7800096 13.896728,11.78001 13.8967276,11.7800103 L8.54378829,17.0210999 C8.31553819,17.2445802 7.94546791,17.2445839 7.71721324,17.021108 C7.71721191,17.0211067 7.71721048,17.0211054 7.71720905,17.0211039 L0.174716572,9.6363666 C-0.0535357143,9.41288852 -0.0535357143,9.05055886 0.174716572,8.82708076 L1.84741134,7.18937315 C2.07566362,6.96589505 2.4457339,6.96589505 2.67398629,7.18937315 L8.02711752,12.4305398 C8.08418066,12.4864093 8.1766981,12.4864093 8.23376124,12.4305398 C8.2337621,12.430539 8.23376286,12.4305382 8.23376371,12.4305376 L13.5866267,7.18937315 C13.8148738,6.96588991 14.1849441,6.96588152 14.4132017,7.18935448 C14.4132049,7.18935762 14.413208,7.18936076 14.4132111,7.18936391 L19.7663353,12.4305376 C19.8233984,12.486407 19.915916,12.486407 19.972979,12.4305376 L25.3260167,7.18946724 C25.5542691,6.96598904 25.9243393,6.96598904 26.1525916,7.18946724 Z" id="WalletConnect"></path>
        </g>
    </g>
</svg>