<svg width="60" height="60" viewBox="0 0 60 60" fill="none" xmlns="http://www.w3.org/2000/svg">
<path opacity="0.15" fill-rule="evenodd" clip-rule="evenodd" d="M30 60C46.5685 60 60 46.5685 60 30C60 13.4315 46.5685 0 30 0C13.4315 0 0 13.4315 0 30C0 46.5685 13.4315 60 30 60Z" fill="#FBFBFB"/>
<path d="M37 34H39V39H37V34ZM33 29H35V39H33V29ZM24 39C22.6744 38.9984 21.4036 38.4711 20.4662 37.5338C19.5289 36.5964 19.0016 35.3256 19 34H21C21 34.5933 21.1759 35.1734 21.5056 35.6667C21.8352 36.1601 22.3038 36.5446 22.8519 36.7716C23.4001 36.9987 24.0033 37.0581 24.5853 36.9424C25.1672 36.8266 25.7018 36.5409 26.1213 36.1213C26.5409 35.7018 26.8266 35.1672 26.9424 34.5853C27.0581 34.0033 26.9987 33.4001 26.7716 32.8519C26.5446 32.3038 26.1601 31.8352 25.6667 31.5056C25.1734 31.1759 24.5933 31 24 31V29C25.3261 29 26.5979 29.5268 27.5355 30.4645C28.4732 31.4021 29 32.6739 29 34C29 35.3261 28.4732 36.5979 27.5355 37.5355C26.5979 38.4732 25.3261 39 24 39Z" fill="#53C8B7"/>
<path d="M41 15H17C16.4697 15.0005 15.9613 15.2114 15.5864 15.5864C15.2114 15.9613 15.0005 16.4697 15 17V41C15.0005 41.5303 15.2114 42.0387 15.5864 42.4136C15.9613 42.7886 16.4697 42.9995 17 43H41C41.5302 42.9992 42.0384 42.7882 42.4133 42.4133C42.7882 42.0384 42.9992 41.5302 43 41V17C42.9995 16.4697 42.7886 15.9613 42.4136 15.5864C42.0387 15.2114 41.5303 15.0005 41 15ZM41 24H27V17H41V24ZM25 17V24H17V17H25ZM17 41V26H41L41.002 41H17Z" fill="#53C8B7"/>
</svg>
