<svg width="60" height="60" viewBox="0 0 60 60" fill="none" xmlns="http://www.w3.org/2000/svg">
<path opacity="0.15" fill-rule="evenodd" clip-rule="evenodd" d="M30 60C46.5685 60 60 46.5685 60 30C60 13.4315 46.5685 0 30 0C13.4315 0 0 13.4315 0 30C0 46.5685 13.4315 60 30 60Z" fill="#FBFBFB"/>
<path d="M32.6953 34.9219H25.5469V37.2656H32.6953V34.9219Z" fill="#53C8B7"/>
<path d="M39.1406 30.2344H25.5469V32.5781H39.1406V30.2344Z" fill="#53C8B7"/>
<path d="M41.4844 19.6875H40.3125V18.5156C40.3125 16.5771 38.7354 15 36.7969 15H18.5156C16.5771 15 15 16.5771 15 18.5156V36.7969C15 38.7354 16.5771 40.3125 18.5156 40.3125H19.6875V41.4844C19.6875 43.4229 21.2646 45 23.2031 45H36.6696L45 36.6296V23.2031C45 21.2646 43.4229 19.6875 41.4844 19.6875ZM19.6875 23.2031V37.9688H18.5156C17.8695 37.9688 17.3438 37.443 17.3438 36.7969V18.5156C17.3438 17.8695 17.8695 17.3438 18.5156 17.3438H36.7969C37.443 17.3438 37.9688 17.8695 37.9688 18.5156V19.6875H23.2031C21.2646 19.6875 19.6875 21.2646 19.6875 23.2031ZM37.3763 40.9674V38.4896C37.3763 37.8434 37.902 37.3177 38.5482 37.3177H41.0085L37.3763 40.9674ZM42.6562 34.974H38.5482C36.6097 34.974 35.0326 36.5511 35.0326 38.4896V42.6562H23.2031C22.557 42.6562 22.0312 42.1305 22.0312 41.4844V23.2031C22.0312 22.557 22.557 22.0312 23.2031 22.0312H41.4844C42.1305 22.0312 42.6562 22.557 42.6562 23.2031V34.974Z" fill="#53C8B7"/>
<path d="M39.1406 25.5469H25.5469V27.8906H39.1406V25.5469Z" fill="#53C8B7"/>
</svg>
